<mxfile host="65bd71144e">
    <diagram id="LPCKoAhp3PluDubOU_Ly" name="Page-1">
        <mxGraphModel dx="4818" dy="2189" grid="1" gridSize="10" guides="1" tooltips="1" connect="1" arrows="1" fold="1" page="0" pageScale="1" pageWidth="850" pageHeight="1100" math="0" shadow="0">
            <root>
                <mxCell id="0"/>
                <mxCell id="1" parent="0"/>
                <mxCell id="230" value="valid" style="shape=umlFrame;whiteSpace=wrap;html=1;strokeWidth=3;fontSize=16;" parent="1" vertex="1">
                    <mxGeometry x="-1214" y="3007" width="1184" height="398" as="geometry"/>
                </mxCell>
                <mxCell id="98" value="" style="group" parent="1" vertex="1" connectable="0">
                    <mxGeometry x="-1232" y="625" width="653" height="262" as="geometry"/>
                </mxCell>
                <mxCell id="95" value="alt" style="shape=umlFrame;whiteSpace=wrap;html=1;strokeWidth=2;fontSize=14;fontColor=#FFFFFF;spacingTop=1;" parent="98" vertex="1">
                    <mxGeometry width="653" height="262" as="geometry"/>
                </mxCell>
                <mxCell id="97" value="&amp;nbsp;[ User not existed ]" style="text;html=1;align=center;verticalAlign=middle;resizable=0;points=[];autosize=1;strokeColor=none;fillColor=none;fontSize=14;fontColor=#FFFFFF;" parent="98" vertex="1">
                    <mxGeometry x="-12.282131661442005" y="31.4041095890411" width="139" height="29" as="geometry"/>
                </mxCell>
                <mxCell id="99" value="&amp;nbsp;[ User existed ]" style="text;html=1;align=center;verticalAlign=middle;resizable=0;points=[];autosize=1;strokeColor=none;fillColor=none;fontSize=14;fontColor=#FFFFFF;" parent="98" vertex="1">
                    <mxGeometry x="3.070532915360501" y="127.41095890410959" width="115" height="29" as="geometry"/>
                </mxCell>
                <mxCell id="96" value="" style="line;strokeWidth=1;fillColor=#f5f5f5;align=left;verticalAlign=middle;spacingTop=-1;spacingLeft=3;spacingRight=3;rotatable=0;labelPosition=right;points=[];portConstraint=eastwest;strokeColor=#666666;fontSize=14;fontColor=#333333;" parent="98" vertex="1">
                    <mxGeometry x="3.070532915360501" y="73.26146375972732" width="649.9294670846394" height="7.178082191780822" as="geometry"/>
                </mxCell>
                <mxCell id="105" value="7.1: Response Error" style="html=1;verticalAlign=bottom;endArrow=open;dashed=1;endSize=8;fontSize=14;fontColor=#FFFFFF;" parent="98" target="104" edge="1">
                    <mxGeometry relative="1" as="geometry">
                        <mxPoint x="365" y="34.44131455399061" as="sourcePoint"/>
                        <mxPoint x="285" y="34.44131455399061" as="targetPoint"/>
                    </mxGeometry>
                </mxCell>
                <mxCell id="118" value="7.2.4: Response" style="html=1;verticalAlign=bottom;endArrow=open;dashed=1;endSize=8;fontSize=14;fontColor=#FFFFFF;" parent="98" target="103" edge="1">
                    <mxGeometry relative="1" as="geometry">
                        <mxPoint x="369" y="215" as="sourcePoint"/>
                        <mxPoint x="289" y="215" as="targetPoint"/>
                    </mxGeometry>
                </mxCell>
                <mxCell id="114" value="" style="html=1;points=[];perimeter=orthogonalPerimeter;strokeWidth=2;fontSize=14;fontColor=#FFFFFF;" parent="98" vertex="1">
                    <mxGeometry x="216" y="216" width="10" height="32" as="geometry"/>
                </mxCell>
                <mxCell id="2" value="Users" style="swimlane;fontStyle=0;childLayout=stackLayout;horizontal=1;startSize=26;horizontalStack=0;resizeParent=1;resizeParentMax=0;resizeLast=0;collapsible=1;marginBottom=0;fillColor=#0050ef;fontColor=#ffffff;strokeColor=#001DBC;fontSize=16;spacingTop=0;spacing=2;fontFamily=Times New Roman;" parent="1" vertex="1">
                    <mxGeometry x="120" y="140" width="190" height="260" as="geometry"/>
                </mxCell>
                <mxCell id="3" value="- _id: ObjectId" style="text;strokeColor=none;fillColor=none;align=left;verticalAlign=top;spacingLeft=4;spacingRight=4;overflow=hidden;rotatable=0;points=[[0,0.5],[1,0.5]];portConstraint=eastwest;fontSize=16;spacingTop=0;spacing=2;fontFamily=Times New Roman;" parent="2" vertex="1">
                    <mxGeometry y="26" width="190" height="26" as="geometry"/>
                </mxCell>
                <mxCell id="6" value="- firstName: String&#10;" style="text;strokeColor=none;fillColor=none;align=left;verticalAlign=top;spacingLeft=4;spacingRight=4;overflow=hidden;rotatable=0;points=[[0,0.5],[1,0.5]];portConstraint=eastwest;fontSize=16;spacingTop=0;spacing=2;fontFamily=Times New Roman;" parent="2" vertex="1">
                    <mxGeometry y="52" width="190" height="26" as="geometry"/>
                </mxCell>
                <mxCell id="7" value="- lastName: String" style="text;strokeColor=none;fillColor=none;align=left;verticalAlign=top;spacingLeft=4;spacingRight=4;overflow=hidden;rotatable=0;points=[[0,0.5],[1,0.5]];portConstraint=eastwest;fontSize=16;spacingTop=0;spacing=2;fontFamily=Times New Roman;" parent="2" vertex="1">
                    <mxGeometry y="78" width="190" height="26" as="geometry"/>
                </mxCell>
                <mxCell id="8" value="- email: String" style="text;strokeColor=none;fillColor=none;align=left;verticalAlign=top;spacingLeft=4;spacingRight=4;overflow=hidden;rotatable=0;points=[[0,0.5],[1,0.5]];portConstraint=eastwest;fontSize=16;spacingTop=0;spacing=2;fontFamily=Times New Roman;" parent="2" vertex="1">
                    <mxGeometry y="104" width="190" height="26" as="geometry"/>
                </mxCell>
                <mxCell id="156" value="- phoneNumber: String" style="text;strokeColor=none;fillColor=none;align=left;verticalAlign=top;spacingLeft=4;spacingRight=4;overflow=hidden;rotatable=0;points=[[0,0.5],[1,0.5]];portConstraint=eastwest;fontSize=16;spacingTop=0;spacing=2;fontFamily=Times New Roman;" parent="2" vertex="1">
                    <mxGeometry y="130" width="190" height="26" as="geometry"/>
                </mxCell>
                <mxCell id="9" value="- password: String" style="text;strokeColor=none;fillColor=none;align=left;verticalAlign=top;spacingLeft=4;spacingRight=4;overflow=hidden;rotatable=0;points=[[0,0.5],[1,0.5]];portConstraint=eastwest;fontSize=16;spacingTop=0;spacing=2;fontFamily=Times New Roman;" parent="2" vertex="1">
                    <mxGeometry y="156" width="190" height="26" as="geometry"/>
                </mxCell>
                <mxCell id="10" value="- createdAt: Date" style="text;strokeColor=none;fillColor=none;align=left;verticalAlign=top;spacingLeft=4;spacingRight=4;overflow=hidden;rotatable=0;points=[[0,0.5],[1,0.5]];portConstraint=eastwest;fontSize=16;spacingTop=0;spacing=2;fontFamily=Times New Roman;" parent="2" vertex="1">
                    <mxGeometry y="182" width="190" height="26" as="geometry"/>
                </mxCell>
                <mxCell id="11" value="- updatedAt: Date" style="text;strokeColor=none;fillColor=none;align=left;verticalAlign=top;spacingLeft=4;spacingRight=4;overflow=hidden;rotatable=0;points=[[0,0.5],[1,0.5]];portConstraint=eastwest;fontSize=16;spacingTop=0;spacing=2;fontFamily=Times New Roman;" parent="2" vertex="1">
                    <mxGeometry y="208" width="190" height="26" as="geometry"/>
                </mxCell>
                <mxCell id="27" value="- role_id: String" style="text;strokeColor=#B09500;fillColor=#e3c800;align=left;verticalAlign=top;spacingLeft=4;spacingRight=4;overflow=hidden;rotatable=0;points=[[0,0.5],[1,0.5]];portConstraint=eastwest;fontSize=16;fontColor=#000000;spacingTop=0;spacing=2;fontFamily=Times New Roman;" parent="2" vertex="1">
                    <mxGeometry y="234" width="190" height="26" as="geometry"/>
                </mxCell>
                <mxCell id="12" value="Roles" style="swimlane;fontStyle=0;childLayout=stackLayout;horizontal=1;startSize=26;horizontalStack=0;resizeParent=1;resizeParentMax=0;resizeLast=0;collapsible=1;marginBottom=0;fillColor=#0050ef;fontColor=#ffffff;strokeColor=#001DBC;fontSize=16;spacingTop=0;spacing=2;fontFamily=Times New Roman;" parent="1" vertex="1">
                    <mxGeometry x="386" y="304" width="190" height="130" as="geometry">
                        <mxRectangle x="510" y="80" width="76" height="31" as="alternateBounds"/>
                    </mxGeometry>
                </mxCell>
                <mxCell id="13" value="- _id: ObjectId" style="text;strokeColor=none;fillColor=none;align=left;verticalAlign=top;spacingLeft=4;spacingRight=4;overflow=hidden;rotatable=0;points=[[0,0.5],[1,0.5]];portConstraint=eastwest;fontSize=16;spacingTop=0;spacing=2;fontFamily=Times New Roman;" parent="12" vertex="1">
                    <mxGeometry y="26" width="190" height="26" as="geometry"/>
                </mxCell>
                <mxCell id="14" value="- name: String" style="text;strokeColor=none;fillColor=none;align=left;verticalAlign=top;spacingLeft=4;spacingRight=4;overflow=hidden;rotatable=0;points=[[0,0.5],[1,0.5]];portConstraint=eastwest;fontSize=16;spacingTop=0;spacing=2;fontFamily=Times New Roman;" parent="12" vertex="1">
                    <mxGeometry y="52" width="190" height="26" as="geometry"/>
                </mxCell>
                <mxCell id="22" value="- createdAt: Date" style="text;strokeColor=none;fillColor=none;align=left;verticalAlign=top;spacingLeft=4;spacingRight=4;overflow=hidden;rotatable=0;points=[[0,0.5],[1,0.5]];portConstraint=eastwest;fontSize=16;spacingTop=0;spacing=2;fontFamily=Times New Roman;" parent="12" vertex="1">
                    <mxGeometry y="78" width="190" height="26" as="geometry"/>
                </mxCell>
                <mxCell id="23" value="- updatedAt: Date" style="text;strokeColor=none;fillColor=none;align=left;verticalAlign=top;spacingLeft=4;spacingRight=4;overflow=hidden;rotatable=0;points=[[0,0.5],[1,0.5]];portConstraint=eastwest;fontSize=16;spacingTop=0;spacing=2;fontFamily=Times New Roman;" parent="12" vertex="1">
                    <mxGeometry y="104" width="190" height="26" as="geometry"/>
                </mxCell>
                <mxCell id="26" value="" style="edgeStyle=entityRelationEdgeStyle;fontSize=16;endArrow=ERoneToMany;startArrow=ERmandOne;entryX=1;entryY=0.5;entryDx=0;entryDy=0;exitX=0.011;exitY=0.769;exitDx=0;exitDy=0;exitPerimeter=0;spacingTop=0;spacing=2;fontFamily=Times New Roman;" parent="1" source="14" target="9" edge="1">
                    <mxGeometry width="100" height="100" relative="1" as="geometry">
                        <mxPoint x="370" y="420" as="sourcePoint"/>
                        <mxPoint x="470" y="320" as="targetPoint"/>
                    </mxGeometry>
                </mxCell>
                <mxCell id="28" value="Products" style="swimlane;fontStyle=0;childLayout=stackLayout;horizontal=1;startSize=26;horizontalStack=0;resizeParent=1;resizeParentMax=0;resizeLast=0;collapsible=1;marginBottom=0;fillColor=#0050ef;fontColor=#ffffff;strokeColor=#001DBC;fontSize=16;spacingTop=0;spacing=2;fontFamily=Times New Roman;" parent="1" vertex="1">
                    <mxGeometry x="120" y="454" width="190" height="338" as="geometry"/>
                </mxCell>
                <mxCell id="29" value="- _id: ObjectId" style="text;strokeColor=none;fillColor=none;align=left;verticalAlign=top;spacingLeft=4;spacingRight=4;overflow=hidden;rotatable=0;points=[[0,0.5],[1,0.5]];portConstraint=eastwest;fontSize=16;spacingTop=0;spacing=2;fontFamily=Times New Roman;" parent="28" vertex="1">
                    <mxGeometry y="26" width="190" height="26" as="geometry"/>
                </mxCell>
                <mxCell id="30" value="- name: String" style="text;strokeColor=none;fillColor=none;align=left;verticalAlign=top;spacingLeft=4;spacingRight=4;overflow=hidden;rotatable=0;points=[[0,0.5],[1,0.5]];portConstraint=eastwest;fontSize=16;spacingTop=0;spacing=2;fontFamily=Times New Roman;" parent="28" vertex="1">
                    <mxGeometry y="52" width="190" height="26" as="geometry"/>
                </mxCell>
                <mxCell id="33" value="- price: String" style="text;strokeColor=none;fillColor=none;align=left;verticalAlign=top;spacingLeft=4;spacingRight=4;overflow=hidden;rotatable=0;points=[[0,0.5],[1,0.5]];portConstraint=eastwest;fontSize=16;spacingTop=0;spacing=2;fontFamily=Times New Roman;" parent="28" vertex="1">
                    <mxGeometry y="78" width="190" height="26" as="geometry"/>
                </mxCell>
                <mxCell id="31" value="- createdAt: Date" style="text;strokeColor=none;fillColor=none;align=left;verticalAlign=top;spacingLeft=4;spacingRight=4;overflow=hidden;rotatable=0;points=[[0,0.5],[1,0.5]];portConstraint=eastwest;fontSize=16;spacingTop=0;spacing=2;fontFamily=Times New Roman;" parent="28" vertex="1">
                    <mxGeometry y="104" width="190" height="26" as="geometry"/>
                </mxCell>
                <mxCell id="32" value="- updatedAt: Date" style="text;strokeColor=none;fillColor=none;align=left;verticalAlign=top;spacingLeft=4;spacingRight=4;overflow=hidden;rotatable=0;points=[[0,0.5],[1,0.5]];portConstraint=eastwest;fontSize=16;spacingTop=0;spacing=2;fontFamily=Times New Roman;" parent="28" vertex="1">
                    <mxGeometry y="130" width="190" height="26" as="geometry"/>
                </mxCell>
                <mxCell id="41" value="- long_desc: String" style="text;strokeColor=none;fillColor=none;align=left;verticalAlign=top;spacingLeft=4;spacingRight=4;overflow=hidden;rotatable=0;points=[[0,0.5],[1,0.5]];portConstraint=eastwest;fontSize=16;spacingTop=0;spacing=2;fontFamily=Times New Roman;" parent="28" vertex="1">
                    <mxGeometry y="156" width="190" height="26" as="geometry"/>
                </mxCell>
                <mxCell id="50" value="- short_desc: String" style="text;strokeColor=none;fillColor=none;align=left;verticalAlign=top;spacingLeft=4;spacingRight=4;overflow=hidden;rotatable=0;points=[[0,0.5],[1,0.5]];portConstraint=eastwest;fontSize=16;spacingTop=0;spacing=2;fontFamily=Times New Roman;" parent="28" vertex="1">
                    <mxGeometry y="182" width="190" height="26" as="geometry"/>
                </mxCell>
                <mxCell id="51" value="- img1: String" style="text;strokeColor=none;fillColor=none;align=left;verticalAlign=top;spacingLeft=4;spacingRight=4;overflow=hidden;rotatable=0;points=[[0,0.5],[1,0.5]];portConstraint=eastwest;fontSize=16;spacingTop=0;spacing=2;fontFamily=Times New Roman;" parent="28" vertex="1">
                    <mxGeometry y="208" width="190" height="26" as="geometry"/>
                </mxCell>
                <mxCell id="52" value="- img2: String" style="text;strokeColor=none;fillColor=none;align=left;verticalAlign=top;spacingLeft=4;spacingRight=4;overflow=hidden;rotatable=0;points=[[0,0.5],[1,0.5]];portConstraint=eastwest;fontSize=16;spacingTop=0;spacing=2;fontFamily=Times New Roman;" parent="28" vertex="1">
                    <mxGeometry y="234" width="190" height="26" as="geometry"/>
                </mxCell>
                <mxCell id="53" value="- img3: String" style="text;strokeColor=none;fillColor=none;align=left;verticalAlign=top;spacingLeft=4;spacingRight=4;overflow=hidden;rotatable=0;points=[[0,0.5],[1,0.5]];portConstraint=eastwest;fontSize=16;spacingTop=0;spacing=2;fontFamily=Times New Roman;" parent="28" vertex="1">
                    <mxGeometry y="260" width="190" height="26" as="geometry"/>
                </mxCell>
                <mxCell id="54" value="- img4: String" style="text;strokeColor=none;fillColor=none;align=left;verticalAlign=top;spacingLeft=4;spacingRight=4;overflow=hidden;rotatable=0;points=[[0,0.5],[1,0.5]];portConstraint=eastwest;fontSize=16;spacingTop=0;spacing=2;fontFamily=Times New Roman;" parent="28" vertex="1">
                    <mxGeometry y="286" width="190" height="26" as="geometry"/>
                </mxCell>
                <mxCell id="39" value="- category_id: String" style="text;strokeColor=#B09500;fillColor=#e3c800;align=left;verticalAlign=top;spacingLeft=4;spacingRight=4;overflow=hidden;rotatable=0;points=[[0,0.5],[1,0.5]];portConstraint=eastwest;fontSize=16;fontColor=#000000;spacingTop=0;spacing=2;fontFamily=Times New Roman;" parent="28" vertex="1">
                    <mxGeometry y="312" width="190" height="26" as="geometry"/>
                </mxCell>
                <mxCell id="34" value="Categories" style="swimlane;fontStyle=0;childLayout=stackLayout;horizontal=1;startSize=26;horizontalStack=0;resizeParent=1;resizeParentMax=0;resizeLast=0;collapsible=1;marginBottom=0;fillColor=#0050ef;fontColor=#ffffff;strokeColor=#001DBC;fontSize=16;spacingTop=0;spacing=2;fontFamily=Times New Roman;" parent="1" vertex="1">
                    <mxGeometry x="697" y="728" width="190" height="130" as="geometry"/>
                </mxCell>
                <mxCell id="35" value="- _id: ObjectId" style="text;strokeColor=none;fillColor=none;align=left;verticalAlign=top;spacingLeft=4;spacingRight=4;overflow=hidden;rotatable=0;points=[[0,0.5],[1,0.5]];portConstraint=eastwest;fontSize=16;spacingTop=0;spacing=2;fontFamily=Times New Roman;" parent="34" vertex="1">
                    <mxGeometry y="26" width="190" height="26" as="geometry"/>
                </mxCell>
                <mxCell id="36" value="- name: String" style="text;strokeColor=none;fillColor=none;align=left;verticalAlign=top;spacingLeft=4;spacingRight=4;overflow=hidden;rotatable=0;points=[[0,0.5],[1,0.5]];portConstraint=eastwest;fontSize=16;spacingTop=0;spacing=2;fontFamily=Times New Roman;" parent="34" vertex="1">
                    <mxGeometry y="52" width="190" height="26" as="geometry"/>
                </mxCell>
                <mxCell id="37" value="- createdAt: Date" style="text;strokeColor=none;fillColor=none;align=left;verticalAlign=top;spacingLeft=4;spacingRight=4;overflow=hidden;rotatable=0;points=[[0,0.5],[1,0.5]];portConstraint=eastwest;fontSize=16;spacingTop=0;spacing=2;fontFamily=Times New Roman;" parent="34" vertex="1">
                    <mxGeometry y="78" width="190" height="26" as="geometry"/>
                </mxCell>
                <mxCell id="38" value="- updatedAt: Date" style="text;strokeColor=none;fillColor=none;align=left;verticalAlign=top;spacingLeft=4;spacingRight=4;overflow=hidden;rotatable=0;points=[[0,0.5],[1,0.5]];portConstraint=eastwest;fontSize=16;spacingTop=0;spacing=2;fontFamily=Times New Roman;" parent="34" vertex="1">
                    <mxGeometry y="104" width="190" height="26" as="geometry"/>
                </mxCell>
                <mxCell id="40" value="" style="edgeStyle=orthogonalEdgeStyle;fontSize=16;endArrow=ERoneToMany;startArrow=ERmandOne;entryX=1;entryY=0.5;entryDx=0;entryDy=0;exitX=0;exitY=0.5;exitDx=0;exitDy=0;spacingTop=0;spacing=2;fontFamily=Times New Roman;curved=1;" parent="1" source="36" target="50" edge="1">
                    <mxGeometry width="100" height="100" relative="1" as="geometry">
                        <mxPoint x="815" y="674.004" as="sourcePoint"/>
                        <mxPoint x="612.9100000000001" y="753.01" as="targetPoint"/>
                        <Array as="points">
                            <mxPoint x="619" y="793"/>
                            <mxPoint x="619" y="649"/>
                        </Array>
                    </mxGeometry>
                </mxCell>
                <mxCell id="55" value="Login" style="rounded=1;whiteSpace=wrap;html=1;arcSize=40;fontColor=#000000;fillColor=#ffffc0;strokeColor=#ff0000;fontSize=14;" parent="1" vertex="1">
                    <mxGeometry x="-1021" y="118" width="120" height="40" as="geometry"/>
                </mxCell>
                <mxCell id="56" value="" style="edgeStyle=orthogonalEdgeStyle;html=1;verticalAlign=bottom;endArrow=open;endSize=8;strokeColor=#ff0000;fontSize=14;" parent="1" source="55" edge="1">
                    <mxGeometry relative="1" as="geometry">
                        <mxPoint x="-961" y="218" as="targetPoint"/>
                    </mxGeometry>
                </mxCell>
                <mxCell id="57" value="" style="ellipse;html=1;shape=startState;fillColor=#000000;strokeColor=#ff0000;fontSize=14;" parent="1" vertex="1">
                    <mxGeometry x="-976" y="28" width="30" height="30" as="geometry"/>
                </mxCell>
                <mxCell id="58" value="" style="edgeStyle=orthogonalEdgeStyle;html=1;verticalAlign=bottom;endArrow=open;endSize=8;strokeColor=#ff0000;fontSize=14;" parent="1" source="57" edge="1">
                    <mxGeometry relative="1" as="geometry">
                        <mxPoint x="-961" y="118" as="targetPoint"/>
                    </mxGeometry>
                </mxCell>
                <mxCell id="60" value="" style="edgeStyle=none;html=1;fontSize=14;" parent="1" source="59" target="57" edge="1">
                    <mxGeometry relative="1" as="geometry"/>
                </mxCell>
                <mxCell id="59" value="User" style="shape=umlActor;verticalLabelPosition=bottom;verticalAlign=top;html=1;fontSize=14;" parent="1" vertex="1">
                    <mxGeometry x="-976" y="-83" width="30" height="60" as="geometry"/>
                </mxCell>
                <mxCell id="61" value="&lt;font color=&quot;#000000&quot;&gt;isAuth&lt;/font&gt;" style="rhombus;whiteSpace=wrap;html=1;fillColor=#ffffc0;strokeColor=#ff0000;fontSize=14;" parent="1" vertex="1">
                    <mxGeometry x="-1020" y="215" width="118" height="75" as="geometry"/>
                </mxCell>
                <mxCell id="62" value="no" style="edgeStyle=orthogonalEdgeStyle;html=1;align=left;verticalAlign=bottom;endArrow=open;endSize=8;strokeColor=#ff0000;fontSize=14;" parent="1" source="61" target="55" edge="1">
                    <mxGeometry x="-1" relative="1" as="geometry">
                        <mxPoint x="-899" y="133" as="targetPoint"/>
                        <Array as="points">
                            <mxPoint x="-728" y="253"/>
                            <mxPoint x="-728" y="138"/>
                        </Array>
                    </mxGeometry>
                </mxCell>
                <mxCell id="63" value="yes" style="edgeStyle=orthogonalEdgeStyle;html=1;align=left;verticalAlign=top;endArrow=open;endSize=8;strokeColor=#ff0000;fontSize=14;" parent="1" source="61" target="64" edge="1">
                    <mxGeometry x="-1" relative="1" as="geometry">
                        <mxPoint x="-961" y="385" as="targetPoint"/>
                    </mxGeometry>
                </mxCell>
                <mxCell id="64" value="" style="ellipse;html=1;shape=endState;fillColor=#000000;strokeColor=#ff0000;fontSize=14;fontColor=#000000;" parent="1" vertex="1">
                    <mxGeometry x="-976" y="370" width="30" height="30" as="geometry"/>
                </mxCell>
                <mxCell id="66" value="&lt;u&gt;:LoginForm&lt;br&gt;&lt;/u&gt;" style="shape=umlLifeline;perimeter=lifelinePerimeter;whiteSpace=wrap;html=1;container=1;collapsible=0;recursiveResize=0;outlineConnect=0;fontSize=16;fontColor=#ffffff;fillColor=#0050ef;strokeColor=#001DBC;spacing=2;strokeWidth=2;" parent="1" vertex="1">
                    <mxGeometry x="-1205" y="440" width="100" height="480" as="geometry"/>
                </mxCell>
                <mxCell id="73" value="" style="html=1;points=[];perimeter=orthogonalPerimeter;strokeWidth=2;fontSize=16;fontColor=#ffffff;fillColor=#0050ef;strokeColor=#001DBC;" parent="66" vertex="1">
                    <mxGeometry x="45" y="72" width="10" height="50" as="geometry"/>
                </mxCell>
                <mxCell id="82" value="" style="html=1;points=[];perimeter=orthogonalPerimeter;strokeWidth=2;fontSize=14;fontColor=#ffffff;fillColor=#0050ef;strokeColor=#001DBC;" parent="66" vertex="1">
                    <mxGeometry x="52" y="110" width="10" height="16" as="geometry"/>
                </mxCell>
                <mxCell id="71" value="" style="shape=umlLifeline;participant=umlActor;perimeter=lifelinePerimeter;whiteSpace=wrap;html=1;container=1;collapsible=0;recursiveResize=0;verticalAlign=top;spacingTop=36;outlineConnect=0;strokeWidth=2;fontSize=16;fontColor=#FFFFFF;" parent="1" vertex="1">
                    <mxGeometry x="-1373" y="440" width="20" height="470" as="geometry"/>
                </mxCell>
                <mxCell id="72" value="" style="html=1;points=[];perimeter=orthogonalPerimeter;strokeWidth=2;fontSize=16;fontColor=#ffffff;fillColor=#0050ef;strokeColor=#001DBC;" parent="71" vertex="1">
                    <mxGeometry x="5" y="74" width="10" height="80" as="geometry"/>
                </mxCell>
                <mxCell id="76" value="" style="endArrow=block;endFill=1;endSize=12;html=1;fontSize=16;fontColor=#FFFFFF;" parent="71" target="66" edge="1">
                    <mxGeometry width="160" relative="1" as="geometry">
                        <mxPoint x="12" y="89" as="sourcePoint"/>
                        <mxPoint x="172" y="89" as="targetPoint"/>
                    </mxGeometry>
                </mxCell>
                <mxCell id="84" value="2: Click &quot;Login&quot;" style="html=1;verticalAlign=bottom;endArrow=block;fontSize=14;fontColor=#FFFFFF;" parent="71" target="66" edge="1">
                    <mxGeometry x="-0.0148" y="-3" width="80" relative="1" as="geometry">
                        <mxPoint x="14" y="110" as="sourcePoint"/>
                        <mxPoint x="94" y="110" as="targetPoint"/>
                        <mxPoint as="offset"/>
                    </mxGeometry>
                </mxCell>
                <mxCell id="74" value=":&lt;u&gt;Controller&lt;br&gt;&lt;/u&gt;" style="shape=umlLifeline;perimeter=lifelinePerimeter;whiteSpace=wrap;html=1;container=1;collapsible=0;recursiveResize=0;outlineConnect=0;fontSize=16;fontColor=#ffffff;fillColor=#0050ef;strokeColor=#001DBC;spacing=2;strokeWidth=2;" parent="1" vertex="1">
                    <mxGeometry x="-911" y="440" width="100" height="487" as="geometry"/>
                </mxCell>
                <mxCell id="75" value="" style="html=1;points=[];perimeter=orthogonalPerimeter;strokeWidth=2;fontSize=16;fontColor=#ffffff;fillColor=#0050ef;strokeColor=#001DBC;" parent="74" vertex="1">
                    <mxGeometry x="45" y="104" width="10" height="307" as="geometry"/>
                </mxCell>
                <mxCell id="89" value="4: findOne( {email: email} )" style="html=1;verticalAlign=bottom;endArrow=block;fontSize=14;fontColor=#FFFFFF;" parent="74" edge="1">
                    <mxGeometry x="0.0216" y="-9" width="80" relative="1" as="geometry">
                        <mxPoint x="54" y="123" as="sourcePoint"/>
                        <mxPoint x="285" y="123" as="targetPoint"/>
                        <mxPoint as="offset"/>
                    </mxGeometry>
                </mxCell>
                <mxCell id="106" value="7.2.1: findById( Result.role_id )" style="html=1;verticalAlign=bottom;endArrow=block;fontSize=14;fontColor=#FFFFFF;" parent="74" target="86" edge="1">
                    <mxGeometry x="0.4894" y="-2" width="80" relative="1" as="geometry">
                        <mxPoint x="55" y="297" as="sourcePoint"/>
                        <mxPoint x="469" y="297" as="targetPoint"/>
                        <mxPoint as="offset"/>
                    </mxGeometry>
                </mxCell>
                <mxCell id="116" value="" style="edgeStyle=orthogonalEdgeStyle;html=1;align=left;spacingLeft=2;endArrow=block;rounded=0;fontSize=14;fontColor=#FFFFFF;" parent="74" edge="1">
                    <mxGeometry x="0.2212" y="-9" relative="1" as="geometry">
                        <mxPoint x="55" y="347" as="sourcePoint"/>
                        <Array as="points">
                            <mxPoint x="123" y="347"/>
                            <mxPoint x="123" y="389"/>
                            <mxPoint x="60" y="389"/>
                        </Array>
                        <mxPoint x="57" y="389" as="targetPoint"/>
                        <mxPoint x="9" y="9" as="offset"/>
                    </mxGeometry>
                </mxCell>
                <mxCell id="117" value="7.2.3: authenticationClient( email, pass )" style="edgeLabel;html=1;align=center;verticalAlign=middle;resizable=0;points=[];fontSize=14;fontColor=#FFFFFF;" parent="116" vertex="1" connectable="0">
                    <mxGeometry x="0.1591" y="-1" relative="1" as="geometry">
                        <mxPoint x="62" y="-14" as="offset"/>
                    </mxGeometry>
                </mxCell>
                <mxCell id="77" value="1: Input email/password" style="text;html=1;align=center;verticalAlign=middle;resizable=0;points=[];autosize=1;strokeColor=none;fillColor=none;fontSize=14;fontColor=#FFFFFF;" parent="1" vertex="1">
                    <mxGeometry x="-1342" y="501" width="166" height="29" as="geometry"/>
                </mxCell>
                <mxCell id="83" value="3: Send requrest" style="html=1;verticalAlign=bottom;endArrow=block;fontSize=14;fontColor=#FFFFFF;exitX=1;exitY=0.265;exitDx=0;exitDy=0;exitPerimeter=0;" parent="1" edge="1">
                    <mxGeometry x="-0.0107" y="-6" width="80" relative="1" as="geometry">
                        <mxPoint x="-1143" y="556.01" as="sourcePoint"/>
                        <mxPoint x="-862" y="556.01" as="targetPoint"/>
                        <mxPoint as="offset"/>
                    </mxGeometry>
                </mxCell>
                <mxCell id="85" value=":UserDto" style="shape=umlLifeline;perimeter=lifelinePerimeter;whiteSpace=wrap;html=1;container=1;collapsible=0;recursiveResize=0;outlineConnect=0;strokeWidth=2;fontSize=14;fontColor=#ffffff;fillColor=#0050ef;strokeColor=#001DBC;" parent="1" vertex="1">
                    <mxGeometry x="-669" y="440" width="100" height="490" as="geometry"/>
                </mxCell>
                <mxCell id="87" value="" style="html=1;points=[];perimeter=orthogonalPerimeter;strokeWidth=2;fontSize=16;fontColor=#ffffff;fillColor=#0050ef;strokeColor=#001DBC;" parent="85" vertex="1">
                    <mxGeometry x="45" y="118" width="10" height="47" as="geometry"/>
                </mxCell>
                <mxCell id="92" value="5: exec()" style="html=1;verticalAlign=bottom;endArrow=block;fontSize=14;fontColor=#FFFFFF;" parent="85" target="91" edge="1">
                    <mxGeometry x="0.639" width="80" relative="1" as="geometry">
                        <mxPoint x="56" y="130" as="sourcePoint"/>
                        <mxPoint x="136" y="130" as="targetPoint"/>
                        <mxPoint as="offset"/>
                    </mxGeometry>
                </mxCell>
                <mxCell id="86" value=":RoleDto" style="shape=umlLifeline;perimeter=lifelinePerimeter;whiteSpace=wrap;html=1;container=1;collapsible=0;recursiveResize=0;outlineConnect=0;strokeWidth=2;fontSize=14;fontColor=#ffffff;fillColor=#0050ef;strokeColor=#001DBC;" parent="1" vertex="1">
                    <mxGeometry x="-435" y="440" width="100" height="502" as="geometry"/>
                </mxCell>
                <mxCell id="91" value="Database" style="shape=umlLifeline;perimeter=lifelinePerimeter;whiteSpace=wrap;html=1;container=1;collapsible=0;recursiveResize=0;outlineConnect=0;strokeWidth=2;fontSize=14;fontColor=#ffffff;fillColor=#0050ef;strokeColor=#001DBC;" parent="1" vertex="1">
                    <mxGeometry x="-180" y="440" width="100" height="523" as="geometry"/>
                </mxCell>
                <mxCell id="93" value="" style="html=1;points=[];perimeter=orthogonalPerimeter;strokeWidth=2;fontSize=14;fontColor=#ffffff;fillColor=#0050ef;strokeColor=#001DBC;" parent="91" vertex="1">
                    <mxGeometry x="45" y="133" width="10" height="31" as="geometry"/>
                </mxCell>
                <mxCell id="94" value="5: return Object" style="html=1;verticalAlign=bottom;endArrow=open;dashed=1;endSize=8;fontSize=14;fontColor=#FFFFFF;" parent="1" edge="1">
                    <mxGeometry x="-0.5041" y="5" relative="1" as="geometry">
                        <mxPoint x="-141" y="596" as="sourcePoint"/>
                        <mxPoint x="-611" y="596" as="targetPoint"/>
                        <Array as="points">
                            <mxPoint x="-344" y="596"/>
                        </Array>
                        <mxPoint as="offset"/>
                    </mxGeometry>
                </mxCell>
                <mxCell id="101" value="6: return Result" style="html=1;verticalAlign=bottom;endArrow=open;dashed=1;endSize=8;fontSize=14;fontColor=#FFFFFF;" parent="1" target="75" edge="1">
                    <mxGeometry relative="1" as="geometry">
                        <mxPoint x="-625" y="603" as="sourcePoint"/>
                        <mxPoint x="-705" y="603" as="targetPoint"/>
                    </mxGeometry>
                </mxCell>
                <mxCell id="103" value="Browser" style="shape=umlLifeline;perimeter=lifelinePerimeter;whiteSpace=wrap;html=1;container=1;collapsible=0;recursiveResize=0;outlineConnect=0;strokeWidth=2;fontSize=14;fontColor=#FFFFFF;" parent="1" vertex="1">
                    <mxGeometry x="-1060" y="443" width="100" height="468" as="geometry"/>
                </mxCell>
                <mxCell id="104" value="" style="html=1;points=[];perimeter=orthogonalPerimeter;strokeWidth=2;fontSize=14;fontColor=#FFFFFF;" parent="103" vertex="1">
                    <mxGeometry x="45" y="210" width="10" height="32" as="geometry"/>
                </mxCell>
                <mxCell id="107" value="" style="html=1;points=[];perimeter=orthogonalPerimeter;strokeWidth=2;fontSize=14;fontColor=#ffffff;fillColor=#0050ef;strokeColor=#001DBC;" parent="1" vertex="1">
                    <mxGeometry x="-388" y="740" width="10" height="31" as="geometry"/>
                </mxCell>
                <mxCell id="108" value="7.2.2: return Result" style="html=1;verticalAlign=bottom;endArrow=open;dashed=1;endSize=8;fontSize=14;fontColor=#FFFFFF;" parent="1" target="75" edge="1">
                    <mxGeometry x="0.4168" y="3" relative="1" as="geometry">
                        <mxPoint x="-393" y="770" as="sourcePoint"/>
                        <mxPoint x="-473" y="770" as="targetPoint"/>
                        <mxPoint as="offset"/>
                    </mxGeometry>
                </mxCell>
                <mxCell id="120" value="&lt;h1&gt;Note&lt;/h1&gt;&lt;p&gt;Response { access_token, refresh_token, userInfo } and saving cookie&lt;/p&gt;" style="text;html=1;strokeColor=default;fillColor=none;spacing=5;spacingTop=-20;whiteSpace=wrap;overflow=hidden;rounded=0;sketch=0;strokeWidth=2;fontSize=14;fontColor=#FFFFFF;" parent="1" vertex="1">
                    <mxGeometry x="-1207" y="963" width="190" height="120" as="geometry"/>
                </mxCell>
                <mxCell id="121" value="" style="curved=1;endArrow=classic;html=1;fontSize=14;fontColor=#FFFFFF;" parent="1" edge="1">
                    <mxGeometry width="50" height="50" relative="1" as="geometry">
                        <mxPoint x="-1017" y="998" as="sourcePoint"/>
                        <mxPoint x="-963" y="843" as="targetPoint"/>
                        <Array as="points">
                            <mxPoint x="-967" y="998"/>
                            <mxPoint x="-1017" y="948"/>
                        </Array>
                    </mxGeometry>
                </mxCell>
                <mxCell id="122" value="Login Sequence" style="text;strokeColor=none;fillColor=none;html=1;fontSize=24;fontStyle=1;verticalAlign=middle;align=center;sketch=0;strokeWidth=2;fontColor=#FFFFFF;" parent="1" vertex="1">
                    <mxGeometry x="-1338" y="349" width="100" height="40" as="geometry"/>
                </mxCell>
                <mxCell id="124" value="Orders" style="swimlane;fontStyle=0;childLayout=stackLayout;horizontal=1;startSize=26;horizontalStack=0;resizeParent=1;resizeParentMax=0;resizeLast=0;collapsible=1;marginBottom=0;fillColor=#0050ef;fontColor=#ffffff;strokeColor=#001DBC;fontSize=16;spacingTop=0;spacing=2;fontFamily=Times New Roman;" parent="1" vertex="1">
                    <mxGeometry x="583" y="18" width="190" height="286" as="geometry"/>
                </mxCell>
                <mxCell id="125" value="- _id: ObjectId" style="text;strokeColor=none;fillColor=none;align=left;verticalAlign=top;spacingLeft=4;spacingRight=4;overflow=hidden;rotatable=0;points=[[0,0.5],[1,0.5]];portConstraint=eastwest;fontSize=16;spacingTop=0;spacing=2;fontFamily=Times New Roman;" parent="124" vertex="1">
                    <mxGeometry y="26" width="190" height="26" as="geometry"/>
                </mxCell>
                <mxCell id="127" value="- createdAt: Date" style="text;strokeColor=none;fillColor=none;align=left;verticalAlign=top;spacingLeft=4;spacingRight=4;overflow=hidden;rotatable=0;points=[[0,0.5],[1,0.5]];portConstraint=eastwest;fontSize=16;spacingTop=0;spacing=2;fontFamily=Times New Roman;" parent="124" vertex="1">
                    <mxGeometry y="52" width="190" height="26" as="geometry"/>
                </mxCell>
                <mxCell id="128" value="- updatedAt: Date" style="text;strokeColor=none;fillColor=none;align=left;verticalAlign=top;spacingLeft=4;spacingRight=4;overflow=hidden;rotatable=0;points=[[0,0.5],[1,0.5]];portConstraint=eastwest;fontSize=16;spacingTop=0;spacing=2;fontFamily=Times New Roman;" parent="124" vertex="1">
                    <mxGeometry y="78" width="190" height="26" as="geometry"/>
                </mxCell>
                <mxCell id="136" value="- phoneNumber: String" style="text;strokeColor=none;fillColor=none;align=left;verticalAlign=top;spacingLeft=4;spacingRight=4;overflow=hidden;rotatable=0;points=[[0,0.5],[1,0.5]];portConstraint=eastwest;fontSize=16;spacingTop=0;spacing=2;fontFamily=Times New Roman;" parent="124" vertex="1">
                    <mxGeometry y="104" width="190" height="26" as="geometry"/>
                </mxCell>
                <mxCell id="137" value="- address: String" style="text;strokeColor=none;fillColor=none;align=left;verticalAlign=top;spacingLeft=4;spacingRight=4;overflow=hidden;rotatable=0;points=[[0,0.5],[1,0.5]];portConstraint=eastwest;fontSize=16;spacingTop=0;spacing=2;fontFamily=Times New Roman;" parent="124" vertex="1">
                    <mxGeometry y="130" width="190" height="26" as="geometry"/>
                </mxCell>
                <mxCell id="139" value="- totalPrice: String" style="text;strokeColor=none;fillColor=none;align=left;verticalAlign=top;spacingLeft=4;spacingRight=4;overflow=hidden;rotatable=0;points=[[0,0.5],[1,0.5]];portConstraint=eastwest;fontSize=16;spacingTop=0;spacing=2;fontFamily=Times New Roman;" parent="124" vertex="1">
                    <mxGeometry y="156" width="190" height="26" as="geometry"/>
                </mxCell>
                <mxCell id="159" value="- status: String" style="text;strokeColor=none;fillColor=none;align=left;verticalAlign=top;spacingLeft=4;spacingRight=4;overflow=hidden;rotatable=0;points=[[0,0.5],[1,0.5]];portConstraint=eastwest;fontSize=16;spacingTop=0;spacing=2;fontFamily=Times New Roman;" parent="124" vertex="1">
                    <mxGeometry y="182" width="190" height="26" as="geometry"/>
                </mxCell>
                <mxCell id="160" value="- name: String" style="text;strokeColor=none;fillColor=none;align=left;verticalAlign=top;spacingLeft=4;spacingRight=4;overflow=hidden;rotatable=0;points=[[0,0.5],[1,0.5]];portConstraint=eastwest;fontSize=16;spacingTop=0;spacing=2;fontFamily=Times New Roman;" parent="124" vertex="1">
                    <mxGeometry y="208" width="190" height="26" as="geometry"/>
                </mxCell>
                <mxCell id="138" value="- items:  Items[]" style="text;strokeColor=#B09500;fillColor=#e3c800;align=left;verticalAlign=top;spacingLeft=4;spacingRight=4;overflow=hidden;rotatable=0;points=[[0,0.5],[1,0.5]];portConstraint=eastwest;fontSize=16;spacingTop=0;spacing=2;fontFamily=Times New Roman;fontColor=#000000;" parent="124" vertex="1">
                    <mxGeometry y="234" width="190" height="26" as="geometry"/>
                </mxCell>
                <mxCell id="126" value="- user_id: String" style="text;strokeColor=#B09500;fillColor=#e3c800;align=left;verticalAlign=top;spacingLeft=4;spacingRight=4;overflow=hidden;rotatable=0;points=[[0,0.5],[1,0.5]];portConstraint=eastwest;fontSize=16;spacingTop=0;spacing=2;fontFamily=Times New Roman;fontColor=#000000;" parent="124" vertex="1">
                    <mxGeometry y="260" width="190" height="26" as="geometry"/>
                </mxCell>
                <mxCell id="129" value="Stock" style="swimlane;fontStyle=0;childLayout=stackLayout;horizontal=1;startSize=26;horizontalStack=0;resizeParent=1;resizeParentMax=0;resizeLast=0;collapsible=1;marginBottom=0;fillColor=#0050ef;fontColor=#ffffff;strokeColor=#001DBC;fontSize=16;spacingTop=0;spacing=2;fontFamily=Times New Roman;" parent="1" vertex="1">
                    <mxGeometry x="406" y="715" width="190" height="156" as="geometry">
                        <mxRectangle x="510" y="80" width="76" height="31" as="alternateBounds"/>
                    </mxGeometry>
                </mxCell>
                <mxCell id="130" value="- _id: ObjectId" style="text;strokeColor=none;fillColor=none;align=left;verticalAlign=top;spacingLeft=4;spacingRight=4;overflow=hidden;rotatable=0;points=[[0,0.5],[1,0.5]];portConstraint=eastwest;fontSize=16;spacingTop=0;spacing=2;fontFamily=Times New Roman;" parent="129" vertex="1">
                    <mxGeometry y="26" width="190" height="26" as="geometry"/>
                </mxCell>
                <mxCell id="131" value="- count: Number" style="text;strokeColor=none;fillColor=none;align=left;verticalAlign=top;spacingLeft=4;spacingRight=4;overflow=hidden;rotatable=0;points=[[0,0.5],[1,0.5]];portConstraint=eastwest;fontSize=16;spacingTop=0;spacing=2;fontFamily=Times New Roman;" parent="129" vertex="1">
                    <mxGeometry y="52" width="190" height="26" as="geometry"/>
                </mxCell>
                <mxCell id="132" value="- createdAt: Date" style="text;strokeColor=none;fillColor=none;align=left;verticalAlign=top;spacingLeft=4;spacingRight=4;overflow=hidden;rotatable=0;points=[[0,0.5],[1,0.5]];portConstraint=eastwest;fontSize=16;spacingTop=0;spacing=2;fontFamily=Times New Roman;" parent="129" vertex="1">
                    <mxGeometry y="78" width="190" height="26" as="geometry"/>
                </mxCell>
                <mxCell id="133" value="- updatedAt: Date" style="text;strokeColor=none;fillColor=none;align=left;verticalAlign=top;spacingLeft=4;spacingRight=4;overflow=hidden;rotatable=0;points=[[0,0.5],[1,0.5]];portConstraint=eastwest;fontSize=16;spacingTop=0;spacing=2;fontFamily=Times New Roman;" parent="129" vertex="1">
                    <mxGeometry y="104" width="190" height="26" as="geometry"/>
                </mxCell>
                <mxCell id="134" value="- product_id: String" style="text;strokeColor=#B09500;fillColor=#e3c800;align=left;verticalAlign=top;spacingLeft=4;spacingRight=4;overflow=hidden;rotatable=0;points=[[0,0.5],[1,0.5]];portConstraint=eastwest;fontSize=16;spacingTop=0;spacing=2;fontFamily=Times New Roman;fontColor=#000000;" parent="129" vertex="1">
                    <mxGeometry y="130" width="190" height="26" as="geometry"/>
                </mxCell>
                <mxCell id="135" value="" style="edgeStyle=entityRelationEdgeStyle;fontSize=16;endArrow=ERoneToMany;startArrow=ERmandOne;entryX=1;entryY=0.5;entryDx=0;entryDy=0;exitX=0;exitY=0.5;exitDx=0;exitDy=0;spacingTop=0;spacing=2;fontFamily=Times New Roman;" parent="1" source="131" target="52" edge="1">
                    <mxGeometry width="100" height="100" relative="1" as="geometry">
                        <mxPoint x="849" y="713" as="sourcePoint"/>
                        <mxPoint x="650" y="749" as="targetPoint"/>
                    </mxGeometry>
                </mxCell>
                <mxCell id="140" value="Items" style="swimlane;fontStyle=0;childLayout=stackLayout;horizontal=1;startSize=26;horizontalStack=0;resizeParent=1;resizeParentMax=0;resizeLast=0;collapsible=1;marginBottom=0;fillColor=#0050ef;fontColor=#ffffff;strokeColor=#001DBC;fontSize=16;spacingTop=0;spacing=2;fontFamily=Times New Roman;" parent="1" vertex="1">
                    <mxGeometry x="617" y="411" width="190" height="234" as="geometry">
                        <mxRectangle x="510" y="80" width="76" height="31" as="alternateBounds"/>
                    </mxGeometry>
                </mxCell>
                <mxCell id="141" value="- _id: ObjectId" style="text;strokeColor=none;fillColor=none;align=left;verticalAlign=top;spacingLeft=4;spacingRight=4;overflow=hidden;rotatable=0;points=[[0,0.5],[1,0.5]];portConstraint=eastwest;fontSize=16;spacingTop=0;spacing=2;fontFamily=Times New Roman;" parent="140" vertex="1">
                    <mxGeometry y="26" width="190" height="26" as="geometry"/>
                </mxCell>
                <mxCell id="150" value="- quantity: Number" style="text;strokeColor=none;fillColor=none;align=left;verticalAlign=top;spacingLeft=4;spacingRight=4;overflow=hidden;rotatable=0;points=[[0,0.5],[1,0.5]];portConstraint=eastwest;fontSize=16;spacingTop=0;spacing=2;fontFamily=Times New Roman;" parent="140" vertex="1">
                    <mxGeometry y="52" width="190" height="26" as="geometry"/>
                </mxCell>
                <mxCell id="143" value="- createdAt: Date" style="text;strokeColor=none;fillColor=none;align=left;verticalAlign=top;spacingLeft=4;spacingRight=4;overflow=hidden;rotatable=0;points=[[0,0.5],[1,0.5]];portConstraint=eastwest;fontSize=16;spacingTop=0;spacing=2;fontFamily=Times New Roman;" parent="140" vertex="1">
                    <mxGeometry y="78" width="190" height="26" as="geometry"/>
                </mxCell>
                <mxCell id="144" value="- updatedAt: Date" style="text;strokeColor=none;fillColor=none;align=left;verticalAlign=top;spacingLeft=4;spacingRight=4;overflow=hidden;rotatable=0;points=[[0,0.5],[1,0.5]];portConstraint=eastwest;fontSize=16;spacingTop=0;spacing=2;fontFamily=Times New Roman;" parent="140" vertex="1">
                    <mxGeometry y="104" width="190" height="26" as="geometry"/>
                </mxCell>
                <mxCell id="155" value="- name: String" style="text;strokeColor=none;fillColor=none;align=left;verticalAlign=top;spacingLeft=4;spacingRight=4;overflow=hidden;rotatable=0;points=[[0,0.5],[1,0.5]];portConstraint=eastwest;fontSize=16;spacingTop=0;spacing=2;fontFamily=Times New Roman;" parent="140" vertex="1">
                    <mxGeometry y="130" width="190" height="26" as="geometry"/>
                </mxCell>
                <mxCell id="157" value="- price: String" style="text;strokeColor=none;fillColor=none;align=left;verticalAlign=top;spacingLeft=4;spacingRight=4;overflow=hidden;rotatable=0;points=[[0,0.5],[1,0.5]];portConstraint=eastwest;fontSize=16;spacingTop=0;spacing=2;fontFamily=Times New Roman;" parent="140" vertex="1">
                    <mxGeometry y="156" width="190" height="26" as="geometry"/>
                </mxCell>
                <mxCell id="158" value="- image: String" style="text;strokeColor=none;fillColor=none;align=left;verticalAlign=top;spacingLeft=4;spacingRight=4;overflow=hidden;rotatable=0;points=[[0,0.5],[1,0.5]];portConstraint=eastwest;fontSize=16;spacingTop=0;spacing=2;fontFamily=Times New Roman;" parent="140" vertex="1">
                    <mxGeometry y="182" width="190" height="26" as="geometry"/>
                </mxCell>
                <mxCell id="142" value="- product_id: String" style="text;strokeColor=#B09500;fillColor=#e3c800;align=left;verticalAlign=top;spacingLeft=4;spacingRight=4;overflow=hidden;rotatable=0;points=[[0,0.5],[1,0.5]];portConstraint=eastwest;fontSize=16;spacingTop=0;spacing=2;fontFamily=Times New Roman;fontColor=#000000;" parent="140" vertex="1">
                    <mxGeometry y="208" width="190" height="26" as="geometry"/>
                </mxCell>
                <mxCell id="151" value="" style="edgeStyle=entityRelationEdgeStyle;fontSize=12;html=1;endArrow=ERmandOne;startArrow=ERmandOne;fontFamily=Times New Roman;fontColor=#FFFFFF;exitX=1.016;exitY=0.192;exitDx=0;exitDy=0;exitPerimeter=0;entryX=0;entryY=0.5;entryDx=0;entryDy=0;" parent="1" source="41" target="150" edge="1">
                    <mxGeometry width="100" height="100" relative="1" as="geometry">
                        <mxPoint x="472" y="566" as="sourcePoint"/>
                        <mxPoint x="572" y="466" as="targetPoint"/>
                    </mxGeometry>
                </mxCell>
                <mxCell id="152" value="" style="edgeStyle=entityRelationEdgeStyle;fontSize=12;html=1;endArrow=ERzeroToMany;startArrow=ERmandOne;fontFamily=Times New Roman;fontColor=#FFFFFF;entryX=-0.016;entryY=0;entryDx=0;entryDy=0;entryPerimeter=0;exitX=1;exitY=0.5;exitDx=0;exitDy=0;" parent="1" source="6" target="128" edge="1">
                    <mxGeometry width="100" height="100" relative="1" as="geometry">
                        <mxPoint x="403" y="342" as="sourcePoint"/>
                        <mxPoint x="503" y="242" as="targetPoint"/>
                    </mxGeometry>
                </mxCell>
                <mxCell id="183" value="" style="group" parent="1" vertex="1" connectable="0">
                    <mxGeometry x="-665" y="1425" width="505" height="243" as="geometry"/>
                </mxCell>
                <mxCell id="180" value="True" style="shape=umlFrame;whiteSpace=wrap;html=1;strokeWidth=3;fontSize=16;" parent="183" vertex="1">
                    <mxGeometry width="505" height="119.92207792207792" as="geometry"/>
                </mxCell>
                <mxCell id="182" value="False" style="shape=umlFrame;whiteSpace=wrap;html=1;strokeWidth=3;fontSize=16;" parent="183" vertex="1">
                    <mxGeometry y="123.07792207792208" width="505" height="119.92207792207792" as="geometry"/>
                </mxCell>
                <mxCell id="154" value="" style="edgeStyle=orthogonalEdgeStyle;fontSize=12;html=1;endArrow=ERoneToMany;startArrow=ERmandOne;fontFamily=Times New Roman;fontColor=#FFFFFF;exitX=1;exitY=0.5;exitDx=0;exitDy=0;entryX=1;entryY=0.5;entryDx=0;entryDy=0;" parent="1" source="137" target="150" edge="1">
                    <mxGeometry width="100" height="100" relative="1" as="geometry">
                        <mxPoint x="863" y="307" as="sourcePoint"/>
                        <mxPoint x="963" y="207" as="targetPoint"/>
                        <Array as="points">
                            <mxPoint x="886" y="161"/>
                            <mxPoint x="886" y="476"/>
                        </Array>
                    </mxGeometry>
                </mxCell>
                <mxCell id="161" value="&lt;font style=&quot;font-size: 27px;&quot;&gt;Signs up client&lt;/font&gt;" style="text;html=1;strokeColor=none;fillColor=none;align=center;verticalAlign=middle;whiteSpace=wrap;rounded=0;fontSize=13;" parent="1" vertex="1">
                    <mxGeometry x="-1394" y="1204" width="109" height="34" as="geometry"/>
                </mxCell>
                <mxCell id="162" value="Browser" style="shape=umlLifeline;perimeter=lifelinePerimeter;whiteSpace=wrap;html=1;container=1;collapsible=0;recursiveResize=0;outlineConnect=0;fontSize=16;" parent="1" vertex="1">
                    <mxGeometry x="-892" y="1280" width="100" height="416" as="geometry"/>
                </mxCell>
                <mxCell id="163" value="" style="shape=umlLifeline;participant=umlActor;perimeter=lifelinePerimeter;whiteSpace=wrap;html=1;container=1;collapsible=0;recursiveResize=0;verticalAlign=top;spacingTop=36;outlineConnect=0;fontSize=16;" parent="1" vertex="1">
                    <mxGeometry x="-1353" y="1285" width="20" height="409" as="geometry"/>
                </mxCell>
                <mxCell id="172" value="1: entered information" style="html=1;verticalAlign=bottom;endArrow=block;fontSize=16;curved=1;" parent="163" target="169" edge="1">
                    <mxGeometry x="-0.004" width="80" relative="1" as="geometry">
                        <mxPoint x="13" y="94" as="sourcePoint"/>
                        <mxPoint x="93" y="94" as="targetPoint"/>
                        <mxPoint as="offset"/>
                    </mxGeometry>
                </mxCell>
                <mxCell id="164" value="&lt;u&gt;:auth.controller&lt;/u&gt;" style="shape=umlLifeline;perimeter=lifelinePerimeter;whiteSpace=wrap;html=1;container=1;collapsible=0;recursiveResize=0;outlineConnect=0;fontSize=16;fillColor=#0050ef;fontColor=#ffffff;strokeColor=#001DBC;strokeWidth=3;" parent="1" vertex="1">
                    <mxGeometry x="-609" y="1280" width="125" height="450" as="geometry"/>
                </mxCell>
                <mxCell id="175" value="" style="html=1;points=[];perimeter=orthogonalPerimeter;strokeWidth=3;fontSize=16;fillColor=#0050ef;fontColor=#ffffff;strokeColor=#001DBC;" parent="164" vertex="1">
                    <mxGeometry x="58" y="120" width="10" height="80" as="geometry"/>
                </mxCell>
                <mxCell id="176" value="3:&amp;nbsp;checkDuplicateEmail" style="html=1;verticalAlign=bottom;endArrow=block;fontSize=16;curved=1;" parent="164" target="165" edge="1">
                    <mxGeometry x="-0.0056" width="80" relative="1" as="geometry">
                        <mxPoint x="70" y="129" as="sourcePoint"/>
                        <mxPoint x="150" y="129" as="targetPoint"/>
                        <mxPoint as="offset"/>
                    </mxGeometry>
                </mxCell>
                <mxCell id="165" value="&lt;u&gt;signUp&lt;br&gt;:Middleware&lt;br&gt;&lt;/u&gt;" style="shape=umlLifeline;perimeter=lifelinePerimeter;whiteSpace=wrap;html=1;container=1;collapsible=0;recursiveResize=0;outlineConnect=0;fontSize=16;fillColor=#0050ef;fontColor=#ffffff;strokeColor=#001DBC;strokeWidth=3;" parent="1" vertex="1">
                    <mxGeometry x="-242" y="1280" width="125" height="481" as="geometry"/>
                </mxCell>
                <mxCell id="177" value="" style="html=1;points=[];perimeter=orthogonalPerimeter;strokeWidth=3;fontSize=16;fillColor=#0050ef;fontColor=#ffffff;strokeColor=#001DBC;" parent="165" vertex="1">
                    <mxGeometry x="58" y="120" width="10" height="190" as="geometry"/>
                </mxCell>
                <mxCell id="188" value="4.1: save(User)" style="html=1;verticalAlign=bottom;endArrow=block;fontSize=16;curved=1;" parent="165" target="178" edge="1">
                    <mxGeometry width="80" relative="1" as="geometry">
                        <mxPoint x="68" y="278" as="sourcePoint"/>
                        <mxPoint x="248" y="278" as="targetPoint"/>
                    </mxGeometry>
                </mxCell>
                <mxCell id="169" value="&lt;u&gt;:Signup Form&lt;/u&gt;" style="shape=umlLifeline;perimeter=lifelinePerimeter;whiteSpace=wrap;html=1;container=1;collapsible=0;recursiveResize=0;outlineConnect=0;fontSize=16;fillColor=#0050ef;fontColor=#ffffff;strokeColor=#001DBC;strokeWidth=3;" parent="1" vertex="1">
                    <mxGeometry x="-1154" y="1280" width="125" height="435" as="geometry"/>
                </mxCell>
                <mxCell id="173" value="" style="html=1;points=[];perimeter=orthogonalPerimeter;strokeWidth=3;fontSize=16;fillColor=#0050ef;fontColor=#ffffff;strokeColor=#001DBC;" parent="169" vertex="1">
                    <mxGeometry x="58" y="103" width="10" height="80" as="geometry"/>
                </mxCell>
                <mxCell id="174" value="2: Send request" style="html=1;verticalAlign=bottom;endArrow=block;fontSize=16;curved=1;" parent="169" target="164" edge="1">
                    <mxGeometry x="-0.0056" y="-2" width="80" relative="1" as="geometry">
                        <mxPoint x="69" y="116" as="sourcePoint"/>
                        <mxPoint x="149" y="116" as="targetPoint"/>
                        <mxPoint as="offset"/>
                    </mxGeometry>
                </mxCell>
                <mxCell id="178" value="&lt;u&gt;:UserDto&lt;/u&gt;" style="shape=umlLifeline;perimeter=lifelinePerimeter;whiteSpace=wrap;html=1;container=1;collapsible=0;recursiveResize=0;outlineConnect=0;fontSize=16;fillColor=#0050ef;fontColor=#ffffff;strokeColor=#001DBC;strokeWidth=3;" parent="1" vertex="1">
                    <mxGeometry x="90" y="1285" width="125" height="498" as="geometry"/>
                </mxCell>
                <mxCell id="179" value="" style="html=1;points=[];perimeter=orthogonalPerimeter;strokeWidth=3;fontSize=16;fillColor=#0050ef;fontColor=#ffffff;strokeColor=#001DBC;" parent="178" vertex="1">
                    <mxGeometry x="57.5" y="259.91999999999996" width="10" height="86" as="geometry"/>
                </mxCell>
                <mxCell id="186" value="4: send Error" style="html=1;verticalAlign=bottom;endArrow=open;dashed=1;endSize=8;fontSize=16;curved=1;" parent="1" target="162" edge="1">
                    <mxGeometry x="-0.0109" relative="1" as="geometry">
                        <mxPoint x="-180" y="1445" as="sourcePoint"/>
                        <mxPoint x="-260" y="1445" as="targetPoint"/>
                        <mxPoint as="offset"/>
                    </mxGeometry>
                </mxCell>
                <mxCell id="189" value="4.2: send response success" style="html=1;verticalAlign=bottom;endArrow=open;dashed=1;endSize=8;fontSize=16;curved=1;" parent="1" edge="1">
                    <mxGeometry relative="1" as="geometry">
                        <mxPoint x="145" y="1605" as="sourcePoint"/>
                        <mxPoint x="-836" y="1605" as="targetPoint"/>
                    </mxGeometry>
                </mxCell>
                <mxCell id="210" value="&lt;font style=&quot;font-size: 27px;&quot;&gt;Login for admin&lt;/font&gt;" style="text;html=1;align=center;verticalAlign=middle;resizable=0;points=[];autosize=1;strokeColor=none;fillColor=none;fontSize=16;fontStyle=1" parent="1" vertex="1">
                    <mxGeometry x="-1497" y="2680" width="222" height="44" as="geometry"/>
                </mxCell>
                <mxCell id="211" value="" style="shape=umlLifeline;participant=umlActor;perimeter=lifelinePerimeter;whiteSpace=wrap;html=1;container=1;collapsible=0;recursiveResize=0;verticalAlign=top;spacingTop=36;outlineConnect=0;strokeWidth=3;fontSize=27;" parent="1" vertex="1">
                    <mxGeometry x="-1398" y="2754" width="20" height="711" as="geometry"/>
                </mxCell>
                <mxCell id="214" value="1. entered username/password" style="html=1;verticalAlign=bottom;endArrow=block;fontSize=16;curved=1;" parent="211" target="212" edge="1">
                    <mxGeometry x="-0.0018" width="80" relative="1" as="geometry">
                        <mxPoint x="14" y="96" as="sourcePoint"/>
                        <mxPoint x="94" y="96" as="targetPoint"/>
                        <mxPoint as="offset"/>
                    </mxGeometry>
                </mxCell>
                <mxCell id="216" value="2: click &quot;Login&quot;" style="html=1;verticalAlign=bottom;endArrow=block;fontSize=16;curved=1;" parent="211" target="212" edge="1">
                    <mxGeometry width="80" relative="1" as="geometry">
                        <mxPoint x="14" y="123" as="sourcePoint"/>
                        <mxPoint x="284.5" y="123" as="targetPoint"/>
                    </mxGeometry>
                </mxCell>
                <mxCell id="212" value="&lt;font style=&quot;font-size: 16px;&quot;&gt;:LoginForm&lt;/font&gt;" style="shape=umlLifeline;perimeter=lifelinePerimeter;whiteSpace=wrap;html=1;container=1;collapsible=0;recursiveResize=0;outlineConnect=0;strokeWidth=3;fontSize=27;fillColor=#0050ef;fontColor=#ffffff;strokeColor=#001DBC;" parent="1" vertex="1">
                    <mxGeometry x="-1162" y="2754" width="100" height="721" as="geometry"/>
                </mxCell>
                <mxCell id="213" value="&lt;font style=&quot;font-size: 16px;&quot;&gt;:Middleware&lt;/font&gt;" style="shape=umlLifeline;perimeter=lifelinePerimeter;whiteSpace=wrap;html=1;container=1;collapsible=0;recursiveResize=0;outlineConnect=0;strokeWidth=3;fontSize=27;fillColor=#0050ef;fontColor=#ffffff;strokeColor=#001DBC;" parent="1" vertex="1">
                    <mxGeometry x="-869" y="2760" width="100" height="745" as="geometry"/>
                </mxCell>
                <mxCell id="217" value="" style="html=1;points=[];perimeter=orthogonalPerimeter;strokeWidth=3;fontSize=16;fillColor=#0050ef;fontColor=#ffffff;strokeColor=#001DBC;" parent="213" vertex="1">
                    <mxGeometry x="46" y="132" width="10" height="58" as="geometry"/>
                </mxCell>
                <mxCell id="219" value="4: send Error" style="html=1;verticalAlign=bottom;endArrow=open;dashed=1;endSize=8;fontSize=16;curved=1;" parent="213" edge="1">
                    <mxGeometry x="0.0072" y="2" relative="1" as="geometry">
                        <mxPoint x="46" y="176" as="sourcePoint"/>
                        <mxPoint x="-230" y="176" as="targetPoint"/>
                        <mxPoint as="offset"/>
                    </mxGeometry>
                </mxCell>
                <mxCell id="220" value="Invalid" style="shape=umlFrame;whiteSpace=wrap;html=1;strokeWidth=3;fontSize=16;" parent="213" vertex="1">
                    <mxGeometry x="-345" y="148" width="432" height="97" as="geometry"/>
                </mxCell>
                <mxCell id="249" value="" style="html=1;points=[];perimeter=orthogonalPerimeter;strokeWidth=3;fontSize=16;fillColor=#0050ef;fontColor=#ffffff;strokeColor=#001DBC;" parent="213" vertex="1">
                    <mxGeometry x="45" y="267" width="10" height="21" as="geometry"/>
                </mxCell>
                <mxCell id="215" value="" style="html=1;points=[];perimeter=orthogonalPerimeter;strokeWidth=3;fontSize=16;fillColor=#0050ef;fontColor=#ffffff;strokeColor=#001DBC;" parent="1" vertex="1">
                    <mxGeometry x="-1117" y="2853" width="10" height="432" as="geometry"/>
                </mxCell>
                <mxCell id="218" value="3: valid username and password" style="html=1;verticalAlign=bottom;startArrow=oval;endArrow=block;startSize=8;fontSize=16;curved=1;exitX=1.541;exitY=0.368;exitDx=0;exitDy=0;exitPerimeter=0;" parent="1" edge="1">
                    <mxGeometry relative="1" as="geometry">
                        <mxPoint x="-1101.5900000000001" y="2892.7200000000003" as="sourcePoint"/>
                        <mxPoint x="-823" y="2892.7200000000003" as="targetPoint"/>
                    </mxGeometry>
                </mxCell>
                <mxCell id="228" value="" style="html=1;points=[];perimeter=orthogonalPerimeter;strokeWidth=3;fontSize=16;fillColor=#0050ef;fontColor=#ffffff;strokeColor=#001DBC;" parent="1" vertex="1">
                    <mxGeometry x="-1115" y="2974" width="10" height="23" as="geometry"/>
                </mxCell>
                <mxCell id="229" value="5: alter message Error" style="edgeStyle=orthogonalEdgeStyle;html=1;align=left;spacingLeft=2;endArrow=block;rounded=0;entryX=1;entryY=0;fontSize=16;elbow=vertical;" parent="1" target="228" edge="1">
                    <mxGeometry relative="1" as="geometry">
                        <mxPoint x="-1110" y="2954" as="sourcePoint"/>
                        <Array as="points">
                            <mxPoint x="-1080" y="2954"/>
                        </Array>
                    </mxGeometry>
                </mxCell>
                <mxCell id="245" value="&lt;p style=&quot;line-height: 80%;&quot;&gt;&lt;font style=&quot;font-size: 16px;&quot;&gt;:Auth&lt;br&gt;Controller&lt;/font&gt;&lt;/p&gt;" style="shape=umlLifeline;perimeter=lifelinePerimeter;whiteSpace=wrap;html=1;container=1;collapsible=0;recursiveResize=0;outlineConnect=0;strokeWidth=3;fontSize=27;fillColor=#0050ef;fontColor=#ffffff;strokeColor=#001DBC;" parent="1" vertex="1">
                    <mxGeometry x="-661" y="2760" width="100" height="725" as="geometry"/>
                </mxCell>
                <mxCell id="254" value="5:&amp;nbsp;authenticationAdmin&amp;nbsp;" style="html=1;verticalAlign=bottom;endArrow=block;fontSize=16;elbow=vertical;" parent="245" target="253" edge="1">
                    <mxGeometry width="80" relative="1" as="geometry">
                        <mxPoint x="61" y="287" as="sourcePoint"/>
                        <mxPoint x="141" y="287" as="targetPoint"/>
                    </mxGeometry>
                </mxCell>
                <mxCell id="250" value="" style="html=1;points=[];perimeter=orthogonalPerimeter;strokeWidth=3;fontSize=16;fillColor=#0050ef;fontColor=#ffffff;strokeColor=#001DBC;" parent="1" vertex="1">
                    <mxGeometry x="-616" y="3034" width="10" height="251" as="geometry"/>
                </mxCell>
                <mxCell id="251" value="4:&amp;nbsp;loginAdmin&amp;nbsp;" style="html=1;verticalAlign=bottom;startArrow=oval;endArrow=block;startSize=8;fontSize=16;elbow=vertical;" parent="1" target="250" edge="1">
                    <mxGeometry relative="1" as="geometry">
                        <mxPoint x="-810" y="3034" as="sourcePoint"/>
                    </mxGeometry>
                </mxCell>
                <mxCell id="252" value="&lt;p style=&quot;line-height: 80%;&quot;&gt;&lt;span style=&quot;font-size: 16px;&quot;&gt;:authService&lt;/span&gt;&lt;/p&gt;" style="shape=umlLifeline;perimeter=lifelinePerimeter;whiteSpace=wrap;html=1;container=1;collapsible=0;recursiveResize=0;outlineConnect=0;strokeWidth=3;fontSize=27;fillColor=#0050ef;fontColor=#ffffff;strokeColor=#001DBC;" parent="1" vertex="1">
                    <mxGeometry x="-410" y="2767" width="100" height="718" as="geometry"/>
                </mxCell>
                <mxCell id="253" value="" style="html=1;points=[];perimeter=orthogonalPerimeter;strokeWidth=3;fontSize=16;fillColor=#0050ef;fontColor=#ffffff;strokeColor=#001DBC;" parent="252" vertex="1">
                    <mxGeometry x="45" y="281" width="10" height="217" as="geometry"/>
                </mxCell>
                <mxCell id="258" value="6: findeOne().populate()" style="html=1;verticalAlign=bottom;endArrow=block;fontSize=16;elbow=vertical;" parent="252" target="255" edge="1">
                    <mxGeometry width="80" relative="1" as="geometry">
                        <mxPoint x="60" y="300" as="sourcePoint"/>
                        <mxPoint x="140" y="300" as="targetPoint"/>
                    </mxGeometry>
                </mxCell>
                <mxCell id="261" value="7: authentication result" style="edgeStyle=orthogonalEdgeStyle;html=1;align=left;spacingLeft=2;endArrow=block;rounded=0;entryX=1;entryY=0;fontSize=16;elbow=vertical;" parent="252" edge="1">
                    <mxGeometry relative="1" as="geometry">
                        <mxPoint x="55" y="365" as="sourcePoint"/>
                        <Array as="points">
                            <mxPoint x="85" y="365"/>
                        </Array>
                        <mxPoint x="60" y="385" as="targetPoint"/>
                    </mxGeometry>
                </mxCell>
                <mxCell id="255" value="&lt;p style=&quot;line-height: 80%;&quot;&gt;&lt;span style=&quot;font-size: 16px;&quot;&gt;:userDto&lt;/span&gt;&lt;/p&gt;" style="shape=umlLifeline;perimeter=lifelinePerimeter;whiteSpace=wrap;html=1;container=1;collapsible=0;recursiveResize=0;outlineConnect=0;strokeWidth=3;fontSize=27;fillColor=#0050ef;fontColor=#ffffff;strokeColor=#001DBC;" parent="1" vertex="1">
                    <mxGeometry x="-150" y="2767" width="100" height="718" as="geometry"/>
                </mxCell>
                <mxCell id="256" value="" style="html=1;points=[];perimeter=orthogonalPerimeter;strokeWidth=3;fontSize=16;fillColor=#0050ef;fontColor=#ffffff;strokeColor=#001DBC;" parent="255" vertex="1">
                    <mxGeometry x="45" y="301" width="10" height="37" as="geometry"/>
                </mxCell>
                <mxCell id="259" value="result" style="html=1;verticalAlign=bottom;endArrow=open;dashed=1;endSize=8;fontSize=16;elbow=vertical;" parent="1" edge="1">
                    <mxGeometry relative="1" as="geometry">
                        <mxPoint x="-100" y="3107" as="sourcePoint"/>
                        <mxPoint x="-350" y="3107" as="targetPoint"/>
                    </mxGeometry>
                </mxCell>
                <mxCell id="262" value="Error" style="html=1;verticalAlign=bottom;endArrow=open;dashed=1;endSize=8;fontSize=16;elbow=vertical;" parent="1" edge="1">
                    <mxGeometry x="-0.0435" y="13" relative="1" as="geometry">
                        <mxPoint x="-370" y="3174" as="sourcePoint"/>
                        <mxPoint x="-600" y="3174" as="targetPoint"/>
                        <mxPoint as="offset"/>
                    </mxGeometry>
                </mxCell>
                <mxCell id="263" value="Response Error" style="html=1;verticalAlign=bottom;endArrow=open;dashed=1;endSize=8;fontSize=16;elbow=vertical;" parent="1" edge="1">
                    <mxGeometry x="0.0417" relative="1" as="geometry">
                        <mxPoint x="-620" y="3187" as="sourcePoint"/>
                        <mxPoint x="-1100" y="3187" as="targetPoint"/>
                        <mxPoint as="offset"/>
                    </mxGeometry>
                </mxCell>
                <mxCell id="264" value="error" style="shape=umlFrame;whiteSpace=wrap;html=1;strokeWidth=3;fontSize=16;" parent="1" vertex="1">
                    <mxGeometry x="-1150" y="3157" width="810" height="68" as="geometry"/>
                </mxCell>
                <mxCell id="265" value="Data" style="html=1;verticalAlign=bottom;endArrow=open;dashed=1;endSize=8;fontSize=16;elbow=vertical;" parent="1" edge="1">
                    <mxGeometry relative="1" as="geometry">
                        <mxPoint x="-365" y="3267" as="sourcePoint"/>
                        <mxPoint x="-600" y="3267" as="targetPoint"/>
                    </mxGeometry>
                </mxCell>
                <mxCell id="266" value="access_token" style="html=1;verticalAlign=bottom;endArrow=open;dashed=1;endSize=8;fontSize=16;elbow=vertical;" parent="1" target="212" edge="1">
                    <mxGeometry relative="1" as="geometry">
                        <mxPoint x="-620" y="3277" as="sourcePoint"/>
                        <mxPoint x="-622" y="3367" as="targetPoint"/>
                    </mxGeometry>
                </mxCell>
                <mxCell id="267" value="not error" style="shape=umlFrame;whiteSpace=wrap;html=1;strokeWidth=3;fontSize=16;width=80;height=30;" parent="1" vertex="1">
                    <mxGeometry x="-1150" y="3227" width="810" height="78" as="geometry"/>
                </mxCell>
                <mxCell id="268" value="Create New Products" style="text;strokeColor=none;fillColor=none;html=1;fontSize=24;fontStyle=1;verticalAlign=middle;align=center;strokeWidth=3;" parent="1" vertex="1">
                    <mxGeometry x="-1478" y="3587" width="100" height="38" as="geometry"/>
                </mxCell>
                <mxCell id="269" value="" style="shape=umlLifeline;participant=umlActor;perimeter=lifelinePerimeter;whiteSpace=wrap;html=1;container=1;collapsible=0;recursiveResize=0;verticalAlign=top;spacingTop=36;outlineConnect=0;strokeWidth=3;fontSize=16;" parent="1" vertex="1">
                    <mxGeometry x="-1440" y="3667" width="20" height="508" as="geometry"/>
                </mxCell>
                <mxCell id="272" value="1: entered info product" style="html=1;verticalAlign=bottom;endArrow=block;fontSize=16;elbow=vertical;" parent="269" target="270" edge="1">
                    <mxGeometry x="-0.0172" width="80" relative="1" as="geometry">
                        <mxPoint x="10" y="90" as="sourcePoint"/>
                        <mxPoint x="160" y="90" as="targetPoint"/>
                        <mxPoint as="offset"/>
                    </mxGeometry>
                </mxCell>
                <mxCell id="270" value=":Create Form" style="shape=umlLifeline;perimeter=lifelinePerimeter;whiteSpace=wrap;html=1;container=1;collapsible=0;recursiveResize=0;outlineConnect=0;strokeWidth=3;fontSize=16;" parent="1" vertex="1">
                    <mxGeometry x="-1275" y="3667" width="100" height="518" as="geometry"/>
                </mxCell>
                <mxCell id="271" value="" style="html=1;points=[];perimeter=orthogonalPerimeter;strokeWidth=3;fontSize=16;" parent="270" vertex="1">
                    <mxGeometry x="46.07" y="90" width="10" height="338" as="geometry"/>
                </mxCell>
                <mxCell id="274" value="2: checkJwtAdmin" style="html=1;verticalAlign=bottom;endArrow=block;fontSize=16;elbow=vertical;" parent="270" target="273" edge="1">
                    <mxGeometry x="-0.0361" width="80" relative="1" as="geometry">
                        <mxPoint x="55" y="110" as="sourcePoint"/>
                        <mxPoint x="135" y="110" as="targetPoint"/>
                        <mxPoint as="offset"/>
                    </mxGeometry>
                </mxCell>
                <mxCell id="273" value=":Middleware" style="shape=umlLifeline;perimeter=lifelinePerimeter;whiteSpace=wrap;html=1;container=1;collapsible=0;recursiveResize=0;outlineConnect=0;strokeWidth=3;fontSize=16;" parent="1" vertex="1">
                    <mxGeometry x="-1061" y="3667" width="100" height="518" as="geometry"/>
                </mxCell>
                <mxCell id="275" value="" style="html=1;points=[];perimeter=orthogonalPerimeter;strokeWidth=3;fontSize=16;" parent="273" vertex="1">
                    <mxGeometry x="44" y="110" width="10" height="98" as="geometry"/>
                </mxCell>
                <mxCell id="279" value="3:&amp;nbsp;createProduct&amp;nbsp;" style="html=1;verticalAlign=bottom;endArrow=block;fontSize=16;elbow=vertical;" parent="273" target="278" edge="1">
                    <mxGeometry width="80" relative="1" as="geometry">
                        <mxPoint x="51" y="200" as="sourcePoint"/>
                        <mxPoint x="131" y="200" as="targetPoint"/>
                    </mxGeometry>
                </mxCell>
                <mxCell id="276" value="Error" style="html=1;verticalAlign=bottom;endArrow=open;dashed=1;endSize=8;fontSize=16;elbow=vertical;" parent="1" edge="1">
                    <mxGeometry relative="1" as="geometry">
                        <mxPoint x="-1020" y="3817" as="sourcePoint"/>
                        <mxPoint x="-1220" y="3817" as="targetPoint"/>
                    </mxGeometry>
                </mxCell>
                <mxCell id="277" value="Error" style="shape=umlFrame;whiteSpace=wrap;html=1;strokeWidth=1;fontSize=16;" parent="1" vertex="1">
                    <mxGeometry x="-1275" y="3787" width="285" height="58" as="geometry"/>
                </mxCell>
                <mxCell id="278" value=":Controller" style="shape=umlLifeline;perimeter=lifelinePerimeter;whiteSpace=wrap;html=1;container=1;collapsible=0;recursiveResize=0;outlineConnect=0;strokeWidth=3;fontSize=16;" parent="1" vertex="1">
                    <mxGeometry x="-840" y="3667" width="100" height="518" as="geometry"/>
                </mxCell>
                <mxCell id="280" value="" style="html=1;points=[];perimeter=orthogonalPerimeter;strokeWidth=3;fontSize=16;" parent="278" vertex="1">
                    <mxGeometry x="45" y="206" width="10" height="212" as="geometry"/>
                </mxCell>
                <mxCell id="283" value="4: Saving file" style="html=1;verticalAlign=bottom;endArrow=block;fontSize=16;elbow=vertical;" parent="278" target="281" edge="1">
                    <mxGeometry width="80" relative="1" as="geometry">
                        <mxPoint x="60" y="220" as="sourcePoint"/>
                        <mxPoint x="140" y="220" as="targetPoint"/>
                    </mxGeometry>
                </mxCell>
                <mxCell id="288" value="5: createProduct" style="html=1;verticalAlign=bottom;endArrow=block;fontSize=16;elbow=vertical;" parent="278" target="286" edge="1">
                    <mxGeometry width="80" relative="1" as="geometry">
                        <mxPoint x="57" y="298" as="sourcePoint"/>
                        <mxPoint x="137" y="298" as="targetPoint"/>
                    </mxGeometry>
                </mxCell>
                <mxCell id="281" value="Firebase&lt;br&gt;Storage" style="shape=umlLifeline;perimeter=lifelinePerimeter;whiteSpace=wrap;html=1;container=1;collapsible=0;recursiveResize=0;outlineConnect=0;strokeWidth=3;fontSize=16;" parent="1" vertex="1">
                    <mxGeometry x="-624" y="3667" width="100" height="518" as="geometry"/>
                </mxCell>
                <mxCell id="284" value="" style="html=1;points=[];perimeter=orthogonalPerimeter;strokeWidth=3;fontSize=16;" parent="281" vertex="1">
                    <mxGeometry x="45" y="222" width="10" height="36" as="geometry"/>
                </mxCell>
                <mxCell id="285" value="Link download file" style="html=1;verticalAlign=bottom;endArrow=open;dashed=1;endSize=8;fontSize=16;elbow=vertical;" parent="1" target="278" edge="1">
                    <mxGeometry relative="1" as="geometry">
                        <mxPoint x="-580" y="3927" as="sourcePoint"/>
                        <mxPoint x="-670" y="3927" as="targetPoint"/>
                    </mxGeometry>
                </mxCell>
                <mxCell id="286" value=":adminService" style="shape=umlLifeline;perimeter=lifelinePerimeter;whiteSpace=wrap;html=1;container=1;collapsible=0;recursiveResize=0;outlineConnect=0;strokeWidth=3;fontSize=16;" parent="1" vertex="1">
                    <mxGeometry x="-388" y="3667" width="108" height="518" as="geometry"/>
                </mxCell>
                <mxCell id="287" value="" style="html=1;points=[];perimeter=orthogonalPerimeter;strokeWidth=3;fontSize=16;" parent="286" vertex="1">
                    <mxGeometry x="49" y="300" width="10" height="108" as="geometry"/>
                </mxCell>
                <mxCell id="292" value="6: save(product)" style="html=1;verticalAlign=bottom;endArrow=block;fontSize=16;elbow=vertical;" parent="286" target="289" edge="1">
                    <mxGeometry width="80" relative="1" as="geometry">
                        <mxPoint x="58" y="310" as="sourcePoint"/>
                        <mxPoint x="138" y="310" as="targetPoint"/>
                    </mxGeometry>
                </mxCell>
                <mxCell id="294" value="7: save(stock)" style="html=1;verticalAlign=bottom;endArrow=block;fontSize=16;elbow=vertical;" parent="286" edge="1">
                    <mxGeometry x="-0.322" width="80" relative="1" as="geometry">
                        <mxPoint x="58" y="377" as="sourcePoint"/>
                        <mxPoint x="500.5" y="377" as="targetPoint"/>
                        <mxPoint as="offset"/>
                    </mxGeometry>
                </mxCell>
                <mxCell id="289" value=":productDto" style="shape=umlLifeline;perimeter=lifelinePerimeter;whiteSpace=wrap;html=1;container=1;collapsible=0;recursiveResize=0;outlineConnect=0;strokeWidth=3;fontSize=16;" parent="1" vertex="1">
                    <mxGeometry x="-158" y="3667" width="108" height="418" as="geometry"/>
                </mxCell>
                <mxCell id="293" value="" style="html=1;points=[];perimeter=orthogonalPerimeter;strokeWidth=3;fontSize=16;" parent="289" vertex="1">
                    <mxGeometry x="49" y="310" width="10" height="38" as="geometry"/>
                </mxCell>
                <mxCell id="296" value="" style="shape=umlDestroy;whiteSpace=wrap;html=1;strokeWidth=3;fontSize=16;" parent="289" vertex="1">
                    <mxGeometry x="39" y="390" width="30" height="28" as="geometry"/>
                </mxCell>
                <mxCell id="291" value=":stockDto" style="shape=umlLifeline;perimeter=lifelinePerimeter;whiteSpace=wrap;html=1;container=1;collapsible=0;recursiveResize=0;outlineConnect=0;strokeWidth=3;fontSize=16;" parent="1" vertex="1">
                    <mxGeometry x="60" y="3667" width="108" height="458" as="geometry"/>
                </mxCell>
                <mxCell id="295" value="" style="html=1;points=[];perimeter=orthogonalPerimeter;strokeWidth=3;fontSize=16;" parent="291" vertex="1">
                    <mxGeometry x="49" y="380" width="10" height="28" as="geometry"/>
                </mxCell>
                <mxCell id="297" value="" style="shape=umlDestroy;whiteSpace=wrap;html=1;strokeWidth=3;fontSize=16;" parent="291" vertex="1">
                    <mxGeometry x="37" y="430" width="30" height="28" as="geometry"/>
                </mxCell>
                <mxCell id="298" value="create success" style="html=1;verticalAlign=bottom;endArrow=open;dashed=1;endSize=8;fontSize=16;elbow=vertical;" parent="1" target="278" edge="1">
                    <mxGeometry relative="1" as="geometry">
                        <mxPoint x="-340" y="4067" as="sourcePoint"/>
                        <mxPoint x="-420" y="4067" as="targetPoint"/>
                    </mxGeometry>
                </mxCell>
                <mxCell id="299" value="response success" style="html=1;verticalAlign=bottom;endArrow=open;dashed=1;endSize=8;fontSize=16;elbow=vertical;" parent="1" target="270" edge="1">
                    <mxGeometry relative="1" as="geometry">
                        <mxPoint x="-800" y="4087" as="sourcePoint"/>
                        <mxPoint x="-880" y="4087" as="targetPoint"/>
                    </mxGeometry>
                </mxCell>
                <mxCell id="300" value="valid" style="shape=umlFrame;whiteSpace=wrap;html=1;strokeWidth=1;fontSize=16;" parent="1" vertex="1">
                    <mxGeometry x="-1275" y="3847" width="1425" height="338" as="geometry"/>
                </mxCell>
                <mxCell id="301" value="Updated product" style="text;strokeColor=none;fillColor=none;html=1;fontSize=24;fontStyle=1;verticalAlign=middle;align=center;strokeWidth=1;" parent="1" vertex="1">
                    <mxGeometry x="-1530" y="4277" width="100" height="38" as="geometry"/>
                </mxCell>
                <mxCell id="302" value="" style="shape=umlLifeline;participant=umlActor;perimeter=lifelinePerimeter;whiteSpace=wrap;html=1;container=1;collapsible=0;recursiveResize=0;verticalAlign=top;spacingTop=36;outlineConnect=0;strokeWidth=3;fontSize=16;" parent="1" vertex="1">
                    <mxGeometry x="-1450" y="4357" width="20" height="578" as="geometry"/>
                </mxCell>
                <mxCell id="312" value="1:&amp;nbsp; Click update button" style="html=1;verticalAlign=bottom;endArrow=block;fontSize=16;elbow=vertical;" parent="302" target="310" edge="1">
                    <mxGeometry width="80" relative="1" as="geometry">
                        <mxPoint x="10" y="90" as="sourcePoint"/>
                        <mxPoint x="90" y="90" as="targetPoint"/>
                    </mxGeometry>
                </mxCell>
                <mxCell id="335" value="7: Click Submit button" style="html=1;verticalAlign=bottom;endArrow=block;fontSize=16;elbow=vertical;" parent="302" target="303" edge="1">
                    <mxGeometry width="80" relative="1" as="geometry">
                        <mxPoint x="10" y="280" as="sourcePoint"/>
                        <mxPoint x="90" y="280" as="targetPoint"/>
                    </mxGeometry>
                </mxCell>
                <mxCell id="303" value="Update form" style="shape=umlLifeline;perimeter=lifelinePerimeter;whiteSpace=wrap;html=1;container=1;collapsible=0;recursiveResize=0;outlineConnect=0;strokeWidth=3;fontSize=16;" parent="1" vertex="1">
                    <mxGeometry x="-1040" y="4357" width="100" height="568" as="geometry"/>
                </mxCell>
                <mxCell id="330" value="" style="html=1;points=[];perimeter=orthogonalPerimeter;strokeWidth=3;fontSize=16;" parent="303" vertex="1">
                    <mxGeometry x="45" y="207" width="10" height="321" as="geometry"/>
                </mxCell>
                <mxCell id="337" value="8: checkJwtAdmin" style="html=1;verticalAlign=bottom;endArrow=block;fontSize=16;elbow=vertical;" parent="303" target="311" edge="1">
                    <mxGeometry width="80" relative="1" as="geometry">
                        <mxPoint x="60" y="300" as="sourcePoint"/>
                        <mxPoint x="140" y="300" as="targetPoint"/>
                    </mxGeometry>
                </mxCell>
                <mxCell id="310" value="List table products" style="shape=umlLifeline;perimeter=lifelinePerimeter;whiteSpace=wrap;html=1;container=1;collapsible=0;recursiveResize=0;outlineConnect=0;strokeWidth=3;fontSize=16;" parent="1" vertex="1">
                    <mxGeometry x="-1267" y="4357" width="100" height="578" as="geometry"/>
                </mxCell>
                <mxCell id="313" value="" style="html=1;points=[];perimeter=orthogonalPerimeter;strokeWidth=3;fontSize=16;" parent="310" vertex="1">
                    <mxGeometry x="45" y="95" width="10" height="33" as="geometry"/>
                </mxCell>
                <mxCell id="314" value="2: getProduct" style="html=1;verticalAlign=bottom;endArrow=block;fontSize=16;elbow=vertical;" parent="310" target="315" edge="1">
                    <mxGeometry width="80" relative="1" as="geometry">
                        <mxPoint x="57" y="110" as="sourcePoint"/>
                        <mxPoint x="507" y="110" as="targetPoint"/>
                    </mxGeometry>
                </mxCell>
                <mxCell id="311" value=":Middleware" style="shape=umlLifeline;perimeter=lifelinePerimeter;whiteSpace=wrap;html=1;container=1;collapsible=0;recursiveResize=0;outlineConnect=0;strokeWidth=3;fontSize=16;" parent="1" vertex="1">
                    <mxGeometry x="-820" y="4357" width="100" height="578" as="geometry"/>
                </mxCell>
                <mxCell id="336" value="" style="html=1;points=[];perimeter=orthogonalPerimeter;strokeWidth=3;fontSize=16;" parent="311" vertex="1">
                    <mxGeometry x="45" y="300" width="10" height="108" as="geometry"/>
                </mxCell>
                <mxCell id="341" value="9: updateProduct" style="html=1;verticalAlign=bottom;endArrow=block;fontSize=16;elbow=vertical;" parent="311" target="315" edge="1">
                    <mxGeometry width="80" relative="1" as="geometry">
                        <mxPoint x="60" y="410" as="sourcePoint"/>
                        <mxPoint x="140" y="410" as="targetPoint"/>
                    </mxGeometry>
                </mxCell>
                <mxCell id="315" value="Controller" style="shape=umlLifeline;perimeter=lifelinePerimeter;whiteSpace=wrap;html=1;container=1;collapsible=0;recursiveResize=0;outlineConnect=0;strokeWidth=3;fontSize=16;" parent="1" vertex="1">
                    <mxGeometry x="-590" y="4357" width="100" height="578" as="geometry"/>
                </mxCell>
                <mxCell id="316" value="" style="html=1;points=[];perimeter=orthogonalPerimeter;strokeWidth=3;fontSize=16;" parent="315" vertex="1">
                    <mxGeometry x="45" y="110" width="10" height="88" as="geometry"/>
                </mxCell>
                <mxCell id="322" value="4: findById()" style="html=1;verticalAlign=bottom;endArrow=block;fontSize=16;elbow=vertical;" parent="315" target="320" edge="1">
                    <mxGeometry x="0.4514" width="80" relative="1" as="geometry">
                        <mxPoint x="280" y="120" as="sourcePoint"/>
                        <mxPoint x="140" y="120" as="targetPoint"/>
                        <mxPoint as="offset"/>
                    </mxGeometry>
                </mxCell>
                <mxCell id="325" value="3: getProduct" style="html=1;verticalAlign=bottom;endArrow=block;fontSize=16;elbow=vertical;" parent="315" target="323" edge="1">
                    <mxGeometry width="80" relative="1" as="geometry">
                        <mxPoint x="60" y="120" as="sourcePoint"/>
                        <mxPoint x="140" y="120" as="targetPoint"/>
                    </mxGeometry>
                </mxCell>
                <mxCell id="342" value="" style="html=1;points=[];perimeter=orthogonalPerimeter;strokeWidth=1;fontSize=16;" parent="315" vertex="1">
                    <mxGeometry x="45" y="410" width="10" height="98" as="geometry"/>
                </mxCell>
                <mxCell id="343" value="10: updateProduct" style="html=1;verticalAlign=bottom;endArrow=block;fontSize=16;elbow=vertical;" parent="315" target="323" edge="1">
                    <mxGeometry width="80" relative="1" as="geometry">
                        <mxPoint x="60" y="430" as="sourcePoint"/>
                        <mxPoint x="140" y="430" as="targetPoint"/>
                    </mxGeometry>
                </mxCell>
                <mxCell id="317" value="Response" style="html=1;verticalAlign=bottom;endArrow=open;dashed=1;endSize=8;fontSize=16;elbow=vertical;exitX=0.021;exitY=1.008;exitDx=0;exitDy=0;exitPerimeter=0;" parent="1" source="316" target="303" edge="1">
                    <mxGeometry relative="1" as="geometry">
                        <mxPoint x="-550" y="4497" as="sourcePoint"/>
                        <mxPoint x="-630" y="4497" as="targetPoint"/>
                    </mxGeometry>
                </mxCell>
                <mxCell id="318" value="stockDto" style="shape=umlLifeline;perimeter=lifelinePerimeter;whiteSpace=wrap;html=1;container=1;collapsible=0;recursiveResize=0;outlineConnect=0;strokeWidth=3;fontSize=16;" parent="1" vertex="1">
                    <mxGeometry x="-172" y="4357" width="100" height="578" as="geometry"/>
                </mxCell>
                <mxCell id="320" value="productDto" style="shape=umlLifeline;perimeter=lifelinePerimeter;whiteSpace=wrap;html=1;container=1;collapsible=0;recursiveResize=0;outlineConnect=0;strokeWidth=3;fontSize=16;" parent="1" vertex="1">
                    <mxGeometry x="50" y="4357" width="100" height="578" as="geometry"/>
                </mxCell>
                <mxCell id="321" value="" style="html=1;points=[];perimeter=orthogonalPerimeter;strokeWidth=3;fontSize=16;" parent="320" vertex="1">
                    <mxGeometry x="45" y="120" width="10" height="38" as="geometry"/>
                </mxCell>
                <mxCell id="346" value="" style="html=1;points=[];perimeter=orthogonalPerimeter;strokeWidth=1;fontSize=16;" parent="320" vertex="1">
                    <mxGeometry x="45" y="450" width="10" height="28" as="geometry"/>
                </mxCell>
                <mxCell id="323" value="adminService" style="shape=umlLifeline;perimeter=lifelinePerimeter;whiteSpace=wrap;html=1;container=1;collapsible=0;recursiveResize=0;outlineConnect=0;strokeWidth=3;fontSize=16;" parent="1" vertex="1">
                    <mxGeometry x="-378" y="4357" width="118" height="578" as="geometry"/>
                </mxCell>
                <mxCell id="324" value="" style="html=1;points=[];perimeter=orthogonalPerimeter;strokeWidth=3;fontSize=16;" parent="323" vertex="1">
                    <mxGeometry x="54" y="120" width="10" height="78" as="geometry"/>
                </mxCell>
                <mxCell id="327" value="5: findOne()" style="html=1;verticalAlign=bottom;endArrow=block;fontSize=16;elbow=vertical;" parent="323" edge="1">
                    <mxGeometry width="80" relative="1" as="geometry">
                        <mxPoint x="58" y="159" as="sourcePoint"/>
                        <mxPoint x="254.5" y="159" as="targetPoint"/>
                    </mxGeometry>
                </mxCell>
                <mxCell id="344" value="" style="html=1;points=[];perimeter=orthogonalPerimeter;strokeWidth=1;fontSize=16;" parent="323" vertex="1">
                    <mxGeometry x="54" y="430" width="10" height="68" as="geometry"/>
                </mxCell>
                <mxCell id="345" value="11:&amp;nbsp;findByIdAndUpdate" style="html=1;verticalAlign=bottom;endArrow=block;fontSize=16;elbow=vertical;" parent="323" target="320" edge="1">
                    <mxGeometry width="80" relative="1" as="geometry">
                        <mxPoint x="68" y="450" as="sourcePoint"/>
                        <mxPoint x="148" y="450" as="targetPoint"/>
                    </mxGeometry>
                </mxCell>
                <mxCell id="328" value="" style="html=1;points=[];perimeter=orthogonalPerimeter;strokeWidth=3;fontSize=16;" parent="1" vertex="1">
                    <mxGeometry x="-127" y="4519" width="10" height="43" as="geometry"/>
                </mxCell>
                <mxCell id="329" value="Info product" style="html=1;verticalAlign=bottom;endArrow=open;dashed=1;endSize=8;fontSize=16;elbow=vertical;" parent="1" target="315" edge="1">
                    <mxGeometry relative="1" as="geometry">
                        <mxPoint x="-330" y="4547" as="sourcePoint"/>
                        <mxPoint x="-410" y="4547" as="targetPoint"/>
                    </mxGeometry>
                </mxCell>
                <mxCell id="334" value="6: Entered info" style="html=1;verticalAlign=bottom;endArrow=block;fontSize=16;elbow=vertical;" parent="1" target="303" edge="1">
                    <mxGeometry width="80" relative="1" as="geometry">
                        <mxPoint x="-1440" y="4597" as="sourcePoint"/>
                        <mxPoint x="-1360" y="4597" as="targetPoint"/>
                    </mxGeometry>
                </mxCell>
                <mxCell id="338" value="Denied access" style="html=1;verticalAlign=bottom;endArrow=open;dashed=1;endSize=8;fontSize=16;elbow=vertical;" parent="1" edge="1">
                    <mxGeometry x="0.0476" relative="1" as="geometry">
                        <mxPoint x="-770" y="4697" as="sourcePoint"/>
                        <mxPoint x="-980" y="4697" as="targetPoint"/>
                        <mxPoint as="offset"/>
                    </mxGeometry>
                </mxCell>
                <mxCell id="340" value="valid" style="shape=umlFrame;whiteSpace=wrap;html=1;strokeWidth=1;fontSize=16;" parent="1" vertex="1">
                    <mxGeometry x="-1040" y="4747" width="1200" height="198" as="geometry"/>
                </mxCell>
                <mxCell id="339" value="invalid" style="shape=umlFrame;whiteSpace=wrap;html=1;strokeWidth=1;fontSize=16;" parent="1" vertex="1">
                    <mxGeometry x="-1040" y="4677" width="300" height="68" as="geometry"/>
                </mxCell>
                <mxCell id="347" value="result" style="html=1;verticalAlign=bottom;endArrow=open;dashed=1;endSize=8;fontSize=16;elbow=vertical;" parent="1" target="323" edge="1">
                    <mxGeometry relative="1" as="geometry">
                        <mxPoint x="100" y="4837" as="sourcePoint"/>
                        <mxPoint x="20" y="4837" as="targetPoint"/>
                    </mxGeometry>
                </mxCell>
                <mxCell id="348" value="result" style="html=1;verticalAlign=bottom;endArrow=open;dashed=1;endSize=8;fontSize=16;elbow=vertical;" parent="1" target="315" edge="1">
                    <mxGeometry relative="1" as="geometry">
                        <mxPoint x="-320" y="4857" as="sourcePoint"/>
                        <mxPoint x="-400" y="4857" as="targetPoint"/>
                    </mxGeometry>
                </mxCell>
                <mxCell id="349" value="response success" style="html=1;verticalAlign=bottom;endArrow=open;dashed=1;endSize=8;fontSize=16;elbow=vertical;" parent="1" target="303" edge="1">
                    <mxGeometry relative="1" as="geometry">
                        <mxPoint x="-540" y="4867" as="sourcePoint"/>
                        <mxPoint x="-960" y="4867" as="targetPoint"/>
                    </mxGeometry>
                </mxCell>
                <mxCell id="350" value="&lt;font style=&quot;font-size: 27px;&quot;&gt;Place to Order&lt;/font&gt;" style="text;html=1;align=center;verticalAlign=middle;resizable=0;points=[];autosize=1;strokeColor=none;fillColor=none;fontSize=16;fontStyle=1" vertex="1" parent="1">
                    <mxGeometry x="-1318" y="5187" width="203" height="44" as="geometry"/>
                </mxCell>
                <mxCell id="351" value="" style="shape=umlLifeline;participant=umlActor;perimeter=lifelinePerimeter;whiteSpace=wrap;html=1;container=1;collapsible=0;recursiveResize=0;verticalAlign=top;spacingTop=36;outlineConnect=0;strokeWidth=3;fontSize=27;" vertex="1" parent="1">
                    <mxGeometry x="-1295" y="5272" width="20" height="613" as="geometry"/>
                </mxCell>
                <mxCell id="352" value="1. Click at &quot;Place To Order&quot; btn" style="html=1;verticalAlign=bottom;endArrow=block;fontSize=16;curved=1;" edge="1" parent="351" target="353">
                    <mxGeometry width="80" relative="1" as="geometry">
                        <mxPoint x="14" y="115" as="sourcePoint"/>
                        <mxPoint x="94" y="115" as="targetPoint"/>
                    </mxGeometry>
                </mxCell>
                <mxCell id="353" value="&lt;p style=&quot;line-height: 90%;&quot;&gt;&lt;font style=&quot;font-size: 16px;&quot;&gt;Browser&lt;/font&gt;&lt;/p&gt;" style="shape=umlLifeline;perimeter=lifelinePerimeter;whiteSpace=wrap;html=1;container=1;collapsible=0;recursiveResize=0;outlineConnect=0;strokeWidth=3;fontSize=27;" vertex="1" parent="1">
                    <mxGeometry x="-1022" y="5272" width="100" height="623" as="geometry"/>
                </mxCell>
                <mxCell id="354" value="2:checkValidToken&amp;nbsp;" style="html=1;verticalAlign=bottom;endArrow=block;fontSize=16;curved=1;" edge="1" parent="353" target="358">
                    <mxGeometry width="80" relative="1" as="geometry">
                        <mxPoint x="52" y="127" as="sourcePoint"/>
                        <mxPoint x="132" y="127" as="targetPoint"/>
                    </mxGeometry>
                </mxCell>
                <mxCell id="355" value="&lt;p style=&quot;line-height: 90%;&quot;&gt;&lt;font style=&quot;font-size: 16px;&quot;&gt;:Controller&lt;/font&gt;&lt;/p&gt;" style="shape=umlLifeline;perimeter=lifelinePerimeter;whiteSpace=wrap;html=1;container=1;collapsible=0;recursiveResize=0;outlineConnect=0;strokeWidth=3;fontSize=27;fillColor=#0050ef;fontColor=#ffffff;strokeColor=#001DBC;" vertex="1" parent="1">
                    <mxGeometry x="-310" y="5272" width="100" height="623" as="geometry"/>
                </mxCell>
                <mxCell id="356" value="" style="html=1;points=[];perimeter=orthogonalPerimeter;strokeWidth=3;fontSize=16;fillColor=#0050ef;fontColor=#ffffff;strokeColor=#001DBC;" vertex="1" parent="355">
                    <mxGeometry x="45" y="253" width="10" height="275" as="geometry"/>
                </mxCell>
                <mxCell id="357" value="4:placeToOrderProducts" style="html=1;verticalAlign=bottom;endArrow=block;fontSize=16;curved=1;" edge="1" parent="355">
                    <mxGeometry x="0.0011" width="80" relative="1" as="geometry">
                        <mxPoint x="57" y="263" as="sourcePoint"/>
                        <mxPoint x="417.49999999999955" y="263" as="targetPoint"/>
                        <mxPoint as="offset"/>
                    </mxGeometry>
                </mxCell>
                <mxCell id="358" value="&lt;p style=&quot;line-height: 90%;&quot;&gt;&lt;font style=&quot;font-size: 16px;&quot;&gt;:Middleware&lt;/font&gt;&lt;/p&gt;" style="shape=umlLifeline;perimeter=lifelinePerimeter;whiteSpace=wrap;html=1;container=1;collapsible=0;recursiveResize=0;outlineConnect=0;strokeWidth=3;fontSize=27;fillColor=#0050ef;fontColor=#ffffff;strokeColor=#001DBC;" vertex="1" parent="1">
                    <mxGeometry x="-622" y="5272" width="100" height="623" as="geometry"/>
                </mxCell>
                <mxCell id="359" value="" style="html=1;points=[];perimeter=orthogonalPerimeter;strokeWidth=3;fontSize=16;fillColor=#0050ef;fontColor=#ffffff;strokeColor=#001DBC;" vertex="1" parent="358">
                    <mxGeometry x="45" y="133" width="10" height="245" as="geometry"/>
                </mxCell>
                <mxCell id="361" value="Error" style="html=1;verticalAlign=bottom;endArrow=open;dashed=1;endSize=8;fontSize=16;curved=1;" edge="1" parent="358" target="353">
                    <mxGeometry x="-0.0503" relative="1" as="geometry">
                        <mxPoint x="42" y="172.57999999999993" as="sourcePoint"/>
                        <mxPoint x="-38" y="172.57999999999993" as="targetPoint"/>
                        <mxPoint as="offset"/>
                    </mxGeometry>
                </mxCell>
                <mxCell id="362" value="&lt;p style=&quot;line-height: 90%;&quot;&gt;&lt;font style=&quot;font-size: 16px;&quot;&gt;:Service&lt;/font&gt;&lt;/p&gt;" style="shape=umlLifeline;perimeter=lifelinePerimeter;whiteSpace=wrap;html=1;container=1;collapsible=0;recursiveResize=0;outlineConnect=0;strokeWidth=3;fontSize=27;fillColor=#0050ef;fontColor=#ffffff;strokeColor=#001DBC;" vertex="1" parent="1">
                    <mxGeometry x="59" y="5272" width="100" height="623" as="geometry"/>
                </mxCell>
                <mxCell id="363" value="" style="html=1;points=[];perimeter=orthogonalPerimeter;strokeWidth=3;fontSize=16;fillColor=#0050ef;fontColor=#ffffff;strokeColor=#001DBC;" vertex="1" parent="362">
                    <mxGeometry x="45" y="265" width="10" height="263" as="geometry"/>
                </mxCell>
                <mxCell id="377" value="&lt;font style=&quot;font-size: 16px;&quot;&gt;Saving Items&lt;/font&gt;" style="html=1;verticalAlign=bottom;endArrow=block;entryX=-0.166;entryY=0.041;entryDx=0;entryDy=0;entryPerimeter=0;" edge="1" parent="362" target="367">
                    <mxGeometry x="0.2469" y="10" width="80" relative="1" as="geometry">
                        <mxPoint x="51" y="435" as="sourcePoint"/>
                        <mxPoint x="651" y="435" as="targetPoint"/>
                        <mxPoint as="offset"/>
                    </mxGeometry>
                </mxCell>
                <mxCell id="379" value="updating stock" style="html=1;verticalAlign=bottom;endArrow=block;fontSize=16;" edge="1" parent="362">
                    <mxGeometry width="80" relative="1" as="geometry">
                        <mxPoint x="51" y="465" as="sourcePoint"/>
                        <mxPoint x="341" y="465" as="targetPoint"/>
                    </mxGeometry>
                </mxCell>
                <mxCell id="382" value="Saving order" style="html=1;verticalAlign=bottom;endArrow=block;fontSize=16;" edge="1" parent="362" target="380">
                    <mxGeometry width="80" relative="1" as="geometry">
                        <mxPoint x="61" y="505" as="sourcePoint"/>
                        <mxPoint x="141" y="505" as="targetPoint"/>
                    </mxGeometry>
                </mxCell>
                <mxCell id="364" value="&lt;p style=&quot;line-height: 90%;&quot;&gt;&lt;font style=&quot;font-size: 16px;&quot;&gt;:StockDto&lt;/font&gt;&lt;/p&gt;" style="shape=umlLifeline;perimeter=lifelinePerimeter;whiteSpace=wrap;html=1;container=1;collapsible=0;recursiveResize=0;outlineConnect=0;strokeWidth=3;fontSize=27;fillColor=#0050ef;fontColor=#ffffff;strokeColor=#001DBC;" vertex="1" parent="1">
                    <mxGeometry x="355" y="5272" width="100" height="623" as="geometry"/>
                </mxCell>
                <mxCell id="370" value="" style="html=1;points=[];perimeter=orthogonalPerimeter;fillColor=#0050ef;fontColor=#ffffff;strokeColor=#001DBC;" vertex="1" parent="364">
                    <mxGeometry x="45" y="315" width="10" height="38" as="geometry"/>
                </mxCell>
                <mxCell id="378" value="" style="html=1;points=[];perimeter=orthogonalPerimeter;fontSize=16;fillColor=#0050ef;fontColor=#ffffff;strokeColor=#001DBC;" vertex="1" parent="364">
                    <mxGeometry x="45" y="460" width="10" height="28" as="geometry"/>
                </mxCell>
                <mxCell id="366" value="&lt;p style=&quot;line-height: 90%;&quot;&gt;&lt;font style=&quot;font-size: 16px;&quot;&gt;:ItemDto&lt;/font&gt;&lt;/p&gt;" style="shape=umlLifeline;perimeter=lifelinePerimeter;whiteSpace=wrap;html=1;container=1;collapsible=0;recursiveResize=0;outlineConnect=0;strokeWidth=3;fontSize=27;fillColor=#0050ef;fontColor=#ffffff;strokeColor=#001DBC;" vertex="1" parent="1">
                    <mxGeometry x="583" y="5272" width="100" height="623" as="geometry"/>
                </mxCell>
                <mxCell id="367" value="" style="html=1;points=[];perimeter=orthogonalPerimeter;strokeWidth=3;fontSize=16;fillColor=#0050ef;fontColor=#ffffff;strokeColor=#001DBC;" vertex="1" parent="366">
                    <mxGeometry x="45" y="435" width="10" height="23" as="geometry"/>
                </mxCell>
                <mxCell id="368" value="invalid" style="shape=umlFrame;whiteSpace=wrap;html=1;" vertex="1" parent="1">
                    <mxGeometry x="-1054" y="5417" width="504" height="78" as="geometry"/>
                </mxCell>
                <mxCell id="360" value="3: placeToOrder" style="html=1;verticalAlign=bottom;endArrow=block;fontSize=16;curved=1;" edge="1" parent="1" target="355" source="359">
                    <mxGeometry width="80" relative="1" as="geometry">
                        <mxPoint x="-567" y="5421" as="sourcePoint"/>
                        <mxPoint x="-487" y="5421" as="targetPoint"/>
                        <Array as="points">
                            <mxPoint x="-470" y="5527"/>
                        </Array>
                    </mxGeometry>
                </mxCell>
                <mxCell id="371" value="check stock out" style="edgeStyle=orthogonalEdgeStyle;html=1;align=left;spacingLeft=2;endArrow=block;rounded=0;entryX=1;entryY=0;" edge="1" target="370" parent="1" source="362">
                    <mxGeometry relative="1" as="geometry">
                        <mxPoint x="390" y="5557" as="sourcePoint"/>
                        <Array as="points">
                            <mxPoint x="420" y="5557"/>
                            <mxPoint x="420" y="5587"/>
                        </Array>
                    </mxGeometry>
                </mxCell>
                <mxCell id="373" value="stock-out" style="shape=umlFrame;whiteSpace=wrap;html=1;" vertex="1" parent="1">
                    <mxGeometry x="-360" y="5607" width="500" height="88" as="geometry"/>
                </mxCell>
                <mxCell id="374" value="Error out stock" style="html=1;verticalAlign=bottom;endArrow=open;dashed=1;endSize=8;" edge="1" parent="1" target="355">
                    <mxGeometry relative="1" as="geometry">
                        <mxPoint x="400" y="5627" as="sourcePoint"/>
                        <mxPoint x="320" y="5627" as="targetPoint"/>
                    </mxGeometry>
                </mxCell>
                <mxCell id="376" value="Error" style="html=1;verticalAlign=bottom;endArrow=open;dashed=1;endSize=8;" edge="1" parent="1" target="353">
                    <mxGeometry x="-0.0364" y="-10" relative="1" as="geometry">
                        <mxPoint x="-260" y="5647" as="sourcePoint"/>
                        <mxPoint x="-340" y="5647" as="targetPoint"/>
                        <mxPoint as="offset"/>
                    </mxGeometry>
                </mxCell>
                <mxCell id="380" value="&lt;p style=&quot;line-height: 90%;&quot;&gt;&lt;font style=&quot;font-size: 16px;&quot;&gt;:OrderDto&lt;/font&gt;&lt;/p&gt;" style="shape=umlLifeline;perimeter=lifelinePerimeter;whiteSpace=wrap;html=1;container=1;collapsible=0;recursiveResize=0;outlineConnect=0;strokeWidth=3;fontSize=27;fillColor=#0050ef;fontColor=#ffffff;strokeColor=#001DBC;" vertex="1" parent="1">
                    <mxGeometry x="810" y="5272" width="100" height="623" as="geometry"/>
                </mxCell>
                <mxCell id="381" value="" style="html=1;points=[];perimeter=orthogonalPerimeter;strokeWidth=3;fontSize=16;fillColor=#0050ef;fontColor=#ffffff;strokeColor=#001DBC;" vertex="1" parent="380">
                    <mxGeometry x="45" y="505" width="10" height="23" as="geometry"/>
                </mxCell>
                <mxCell id="383" value="Success message" style="html=1;verticalAlign=bottom;endArrow=open;dashed=1;endSize=8;fontSize=16;" edge="1" parent="1" target="355">
                    <mxGeometry relative="1" as="geometry">
                        <mxPoint x="100" y="5787" as="sourcePoint"/>
                        <mxPoint x="20" y="5787" as="targetPoint"/>
                    </mxGeometry>
                </mxCell>
                <mxCell id="384" value="Response success" style="html=1;verticalAlign=bottom;endArrow=open;dashed=1;endSize=8;fontSize=16;" edge="1" parent="1" target="353">
                    <mxGeometry x="0.0011" relative="1" as="geometry">
                        <mxPoint x="-270" y="5807" as="sourcePoint"/>
                        <mxPoint x="-350" y="5807" as="targetPoint"/>
                        <mxPoint as="offset"/>
                    </mxGeometry>
                </mxCell>
            </root>
        </mxGraphModel>
    </diagram>
</mxfile>